# MagicaVoxel @ Ephtracy

# group
o 

# material
mtllib Assets-2.mtl
usemtl palette

# normals
vn -1 0 0
vn 1 0 0
vn 0 0 1
vn 0 0 -1
vn 0 -1 0
vn 0 1 0

# texcoords
vt 0.302734 0.5
vt 0.306641 0.5
vt 0.986328 0.5

# verts
v 1.9 2.9 1.4
v 1.9 2.9 1.3
v 1.9 2.9 1
v 1.9 2.9 0.9
v 1.9 3 1.4
v 1.9 3 1.3
v 1.9 3 1
v 1.9 3 0.9
v 1.9 3.1 1.4
v 1.9 3.1 1
v 1.9 3.1 0.9
v 1.9 3.2 1.4
v 1.9 3.2 1.2
v 1.9 3.2 1.1
v 1.9 3.2 1
v 1.9 3.2 0.9
v 1.9 3.3 1.4
v 1.9 3.3 1.2
v 1.9 3.3 1.1
v 1.9 3.3 1
v 1.9 3.3 0.9
v 2 3 1.4
v 2 3 1.3
v 2 3 1.2
v 2 3 1.1
v 2 3 1
v 2 3 0.9
v 2 3.1 1.4
v 2 3.1 1.2
v 2 3.1 1.1
v 2 3.1 1
v 2 3.1 0.9
v 2.1 2.9 1.4
v 2.1 2.9 1.3
v 2.1 2.9 1
v 2.1 2.9 0.9
v 2.1 3 1.4
v 2.1 3 1.3
v 2.1 3 1
v 2.1 3 0.9
v 2 2.9 1.4
v 2 2.9 1.3
v 2 2.9 1
v 2 2.9 0.9
v 2 3 1.4
v 2 3 1.3
v 2 3 1
v 2 3 0.9
v 2 3.1 1.4
v 2 3.1 1.2
v 2 3.1 1.1
v 2 3.1 1
v 2 3.1 0.9
v 2 3.2 1.4
v 2 3.2 1.2
v 2 3.2 1.1
v 2 3.2 1
v 2 3.2 0.9
v 2 3.3 1.4
v 2 3.3 1.2
v 2 3.3 1.1
v 2 3.3 1
v 2 3.3 0.9
v 2.2 2.9 1.4
v 2.2 2.9 1.3
v 2.2 2.9 1
v 2.2 2.9 0.9
v 2.2 3 1.4
v 2.2 3 1.3
v 2.2 3 1
v 2.2 3 0.9
v 2.2 3.1 1.4
v 2.2 3.1 0.9
v 1.9 2.9 1.4
v 1.9 3 1.4
v 1.9 3.1 1.4
v 1.9 3.2 1.4
v 1.9 3.3 1.4
v 2 2.9 1.4
v 2 3 1.4
v 2 3.1 1.4
v 2 3.2 1.4
v 2 3.3 1.4
v 2.1 2.9 1.4
v 2.1 3 1.4
v 2.1 3.1 1.4
v 2.2 2.9 1.4
v 2.2 3 1.4
v 2.2 3.1 1.4
v 1.9 2.9 1
v 1.9 3 1
v 2 2.9 1
v 2 3 1
v 2.1 2.9 1
v 2.1 3 1
v 2.2 2.9 1
v 2.2 3 1
v 1.9 2.9 1.3
v 1.9 3 1.3
v 2 2.9 1.3
v 2 3 1.3
v 2.1 2.9 1.3
v 2.1 3 1.3
v 2.2 2.9 1.3
v 2.2 3 1.3
v 1.9 2.9 0.9
v 1.9 3 0.9
v 1.9 3.1 0.9
v 1.9 3.2 0.9
v 1.9 3.3 0.9
v 2 2.9 0.9
v 2 3 0.9
v 2 3.1 0.9
v 2 3.2 0.9
v 2 3.3 0.9
v 2.1 2.9 0.9
v 2.1 3 0.9
v 2.2 2.9 0.9
v 2.2 3 0.9
v 2.2 3.1 0.9
v 1.9 2.9 1.4
v 2 2.9 1.4
v 2.1 2.9 1.4
v 2.2 2.9 1.4
v 1.9 2.9 1.3
v 2 2.9 1.3
v 2.1 2.9 1.3
v 2.2 2.9 1.3
v 1.9 2.9 1
v 2 2.9 1
v 2.1 2.9 1
v 2.2 2.9 1
v 1.9 2.9 0.9
v 2 2.9 0.9
v 2.1 2.9 0.9
v 2.2 2.9 0.9
v 2 3 1.4
v 2.1 3 1.4
v 2 3 1.3
v 2.1 3 1.3
v 2.2 3 1.3
v 2 3 1.2
v 2.1 3 1.2
v 2 3 1.1
v 2.1 3 1.1
v 2 3 1
v 2.1 3 1
v 2.2 3 1
v 2 3 0.9
v 2.1 3 0.9
v 1.9 3.1 1.4
v 2 3.1 1.4
v 2 3.1 1.2
v 2 3.1 1.1
v 1.9 3.1 1
v 2 3.1 1
v 1.9 3.1 0.9
v 2 3.1 0.9
v 1.9 3 1.4
v 2 3 1.4
v 1.9 3 1.3
v 2 3 1.3
v 1.9 3 1
v 2 3 1
v 1.9 3 0.9
v 2 3 0.9
v 2 3.1 1.4
v 2.1 3.1 1.4
v 2.2 3.1 1.4
v 2 3.1 1.2
v 2.1 3.1 1.2
v 2 3.1 1.1
v 2.1 3.1 1.1
v 2 3.1 1
v 2.1 3.1 1
v 2 3.1 0.9
v 2.2 3.1 0.9
v 1.9 3.3 1.4
v 2 3.3 1.4
v 1.9 3.3 1.2
v 2 3.3 1.2
v 1.9 3.3 1.1
v 2 3.3 1.1
v 1.9 3.3 1
v 2 3.3 1
v 1.9 3.3 0.9
v 2 3.3 0.9

# faces
f 5/3/1 2/3/1 1/3/1
f 6/3/1 2/3/1 5/3/1
f 7/3/1 4/3/1 3/3/1
f 8/3/1 4/3/1 7/3/1
f 12/2/1 10/2/1 9/2/1
f 13/2/1 10/2/1 12/2/1
f 14/2/1 10/2/1 13/2/1
f 15/1/1 11/1/1 10/1/1
f 15/2/1 10/2/1 14/2/1
f 16/1/1 11/1/1 15/1/1
f 17/1/1 13/1/1 12/1/1
f 18/2/1 14/2/1 13/2/1
f 18/1/1 13/1/1 17/1/1
f 19/1/1 15/1/1 14/1/1
f 19/2/1 14/2/1 18/2/1
f 20/2/1 16/2/1 15/2/1
f 20/1/1 15/1/1 19/1/1
f 21/2/1 16/2/1 20/2/1
f 28/1/1 23/1/1 22/1/1
f 28/1/1 24/1/1 23/1/1
f 29/2/1 25/2/1 24/2/1
f 29/1/1 24/1/1 28/1/1
f 30/1/1 26/1/1 25/1/1
f 30/2/1 25/2/1 29/2/1
f 31/2/1 27/2/1 26/2/1
f 31/1/1 26/1/1 30/1/1
f 32/2/1 27/2/1 31/2/1
f 37/3/1 34/3/1 33/3/1
f 38/3/1 34/3/1 37/3/1
f 39/3/1 36/3/1 35/3/1
f 40/3/1 36/3/1 39/3/1
f 41/3/2 42/3/2 45/3/2
f 45/3/2 42/3/2 46/3/2
f 43/3/2 44/3/2 47/3/2
f 47/3/2 44/3/2 48/3/2
f 49/2/2 50/2/2 54/2/2
f 50/2/2 51/2/2 54/2/2
f 51/2/2 52/2/2 54/2/2
f 54/2/2 52/2/2 55/2/2
f 55/2/2 52/2/2 56/2/2
f 52/1/2 53/1/2 57/1/2
f 56/2/2 52/2/2 57/2/2
f 57/1/2 53/1/2 58/1/2
f 54/1/2 55/1/2 59/1/2
f 55/2/2 56/2/2 60/2/2
f 59/1/2 55/1/2 60/1/2
f 56/1/2 57/1/2 61/1/2
f 60/2/2 56/2/2 61/2/2
f 57/2/2 58/2/2 62/2/2
f 61/1/2 57/1/2 62/1/2
f 62/2/2 58/2/2 63/2/2
f 64/3/2 65/3/2 68/3/2
f 68/3/2 65/3/2 69/3/2
f 66/3/2 67/3/2 70/3/2
f 70/3/2 67/3/2 71/3/2
f 68/2/2 69/2/2 72/2/2
f 69/2/2 70/2/2 72/2/2
f 70/2/2 71/2/2 72/2/2
f 72/2/2 71/2/2 73/2/2
f 79/3/3 75/3/3 74/3/3
f 80/3/3 75/3/3 79/3/3
f 81/2/3 77/2/3 76/2/3
f 82/1/3 78/1/3 77/1/3
f 82/2/3 77/2/3 81/2/3
f 83/1/3 78/1/3 82/1/3
f 85/1/3 81/1/3 80/1/3
f 86/1/3 81/1/3 85/1/3
f 87/3/3 85/3/3 84/3/3
f 88/2/3 86/2/3 85/2/3
f 88/3/3 85/3/3 87/3/3
f 89/2/3 86/2/3 88/2/3
f 92/3/3 91/3/3 90/3/3
f 93/3/3 91/3/3 92/3/3
f 96/3/3 95/3/3 94/3/3
f 97/3/3 95/3/3 96/3/3
f 98/3/4 99/3/4 100/3/4
f 100/3/4 99/3/4 101/3/4
f 102/3/4 103/3/4 104/3/4
f 104/3/4 103/3/4 105/3/4
f 106/3/4 107/3/4 111/3/4
f 111/3/4 107/3/4 112/3/4
f 108/1/4 109/1/4 113/1/4
f 109/2/4 110/2/4 114/2/4
f 113/1/4 109/1/4 114/1/4
f 114/2/4 110/2/4 115/2/4
f 112/2/4 113/2/4 117/2/4
f 116/3/4 117/3/4 118/3/4
f 117/2/4 113/2/4 119/2/4
f 118/3/4 117/3/4 119/3/4
f 119/2/4 113/2/4 120/2/4
f 125/3/5 122/3/5 121/3/5
f 126/3/5 122/3/5 125/3/5
f 127/3/5 124/3/5 123/3/5
f 128/3/5 124/3/5 127/3/5
f 133/3/5 130/3/5 129/3/5
f 134/3/5 130/3/5 133/3/5
f 135/3/5 132/3/5 131/3/5
f 136/3/5 132/3/5 135/3/5
f 139/1/5 138/1/5 137/1/5
f 140/1/5 138/1/5 139/1/5
f 142/1/5 140/1/5 139/1/5
f 143/2/5 141/2/5 140/2/5
f 143/1/5 140/1/5 142/1/5
f 144/2/5 143/2/5 142/2/5
f 145/2/5 141/2/5 143/2/5
f 145/2/5 143/2/5 144/2/5
f 146/1/5 145/1/5 144/1/5
f 147/2/5 141/2/5 145/2/5
f 147/1/5 145/1/5 146/1/5
f 148/2/5 141/2/5 147/2/5
f 149/2/5 147/2/5 146/2/5
f 150/2/5 147/2/5 149/2/5
f 153/2/5 152/2/5 151/2/5
f 154/2/5 153/2/5 151/2/5
f 155/2/5 154/2/5 151/2/5
f 156/2/5 154/2/5 155/2/5
f 157/1/5 156/1/5 155/1/5
f 158/1/5 156/1/5 157/1/5
f 159/3/6 160/3/6 161/3/6
f 161/3/6 160/3/6 162/3/6
f 163/3/6 164/3/6 165/3/6
f 165/3/6 164/3/6 166/3/6
f 167/1/6 168/1/6 170/1/6
f 168/2/6 169/2/6 171/2/6
f 170/1/6 168/1/6 171/1/6
f 170/2/6 171/2/6 172/2/6
f 171/2/6 169/2/6 173/2/6
f 172/2/6 171/2/6 173/2/6
f 172/1/6 173/1/6 174/1/6
f 173/2/6 169/2/6 175/2/6
f 174/1/6 173/1/6 175/1/6
f 174/2/6 175/2/6 176/2/6
f 175/2/6 169/2/6 177/2/6
f 176/2/6 175/2/6 177/2/6
f 178/1/6 179/1/6 180/1/6
f 180/1/6 179/1/6 181/1/6
f 180/2/6 181/2/6 182/2/6
f 182/2/6 181/2/6 183/2/6
f 182/1/6 183/1/6 184/1/6
f 184/1/6 183/1/6 185/1/6
f 184/2/6 185/2/6 186/2/6
f 186/2/6 185/2/6 187/2/6
