# MagicaVoxel @ Ephtracy

# group
o 

# material
mtllib Assets-21.mtl
usemtl palette

# normals
vn -1 0 0
vn 1 0 0
vn 0 0 1
vn 0 0 -1
vn 0 -1 0
vn 0 1 0

# texcoords
vt 0.275391 0.5
vt 0.279297 0.5

# verts
v -3.7 4.1 2.9
v -3.7 4.1 2.7
v -3.7 4.1 2.5
v -3.7 4.1 2.4
v -3.7 4.1 2.3
v -3.7 4.1 2.2
v -3.7 4.1 2.1
v -3.7 4.1 2
v -3.7 4.2 2.9
v -3.7 4.2 2.8
v -3.7 4.2 2.4
v -3.7 4.2 2.3
v -3.7 4.2 2.2
v -3.7 4.2 2.1
v -3.7 4.2 2
v -3.7 4.3 2.8
v -3.7 4.3 2.7
v -3.7 4.3 2.5
v -3.7 4.3 2.4
v -3.7 4.3 2.3
v -3.7 4.3 2.2
v -3.7 4.3 2.1
v -3.7 4.3 2
v -3.7 4.4 2.9
v -3.7 4.4 2.8
v -3.7 4.4 2.5
v -3.7 4.4 2.4
v -3.6 4.1 2.7
v -3.6 4.1 2.6
v -3.6 4.1 2.5
v -3.6 4.1 2.2
v -3.6 4.1 2.1
v -3.6 4.1 2
v -3.6 4.1 1.7
v -3.6 4.2 2.7
v -3.6 4.2 2.6
v -3.6 4.2 2.2
v -3.6 4.2 2.1
v -3.6 4.2 2
v -3.6 4.2 1.9
v -3.6 4.2 1.8
v -3.6 4.3 2.5
v -3.6 4.3 2.2
v -3.6 4.3 2.1
v -3.6 4.3 2
v -3.6 4.3 1.8
v -3.6 4.3 1.7
v -3.6 4.4 2.5
v -3.6 4.4 2.2
v -3.6 4.4 2.1
v -3.6 4.4 2
v -3.6 4.4 1.9
v -3.6 4.5 2.6
v -3.6 4.5 2.5
v -3.6 4.5 1.8
v -3.6 4.5 1.7
v -3.6 4.1 2.9
v -3.6 4.1 2.7
v -3.6 4.1 2.5
v -3.6 4.1 2.4
v -3.6 4.1 2.3
v -3.6 4.1 2.2
v -3.6 4.1 2.1
v -3.6 4.1 2
v -3.6 4.2 2.9
v -3.6 4.2 2.8
v -3.6 4.2 2.7
v -3.6 4.2 2.4
v -3.6 4.2 2.3
v -3.6 4.2 2.2
v -3.6 4.2 2.1
v -3.6 4.2 2
v -3.6 4.3 2.8
v -3.6 4.3 2.7
v -3.6 4.3 2.5
v -3.6 4.3 2.4
v -3.6 4.3 2.3
v -3.6 4.3 2.2
v -3.6 4.3 2.1
v -3.6 4.3 2
v -3.6 4.4 2.9
v -3.6 4.4 2.8
v -3.6 4.4 2.5
v -3.6 4.4 2.4
v -3.5 4.1 2.7
v -3.5 4.1 2.6
v -3.5 4.1 2.5
v -3.5 4.1 2.2
v -3.5 4.1 2.1
v -3.5 4.1 2
v -3.5 4.1 1.7
v -3.5 4.2 2.7
v -3.5 4.2 2.6
v -3.5 4.2 1.9
v -3.5 4.2 1.8
v -3.5 4.3 2.2
v -3.5 4.3 2.1
v -3.5 4.3 1.8
v -3.5 4.3 1.7
v -3.5 4.4 2.2
v -3.5 4.4 2.1
v -3.5 4.4 2
v -3.5 4.4 1.9
v -3.5 4.5 2.6
v -3.5 4.5 2.5
v -3.5 4.5 1.8
v -3.5 4.5 1.7
v -3.7 4.1 2.9
v -3.7 4.2 2.9
v -3.7 4.4 2.9
v -3.6 4.1 2.9
v -3.6 4.2 2.9
v -3.6 4.4 2.9
v -3.6 4.1 2.7
v -3.6 4.2 2.7
v -3.5 4.1 2.7
v -3.5 4.2 2.7
v -3.6 4.2 2.6
v -3.6 4.5 2.6
v -3.5 4.2 2.6
v -3.5 4.5 2.6
v -3.7 4.1 2.5
v -3.7 4.3 2.5
v -3.7 4.4 2.5
v -3.6 4.1 2.5
v -3.6 4.3 2.5
v -3.6 4.4 2.5
v -3.7 4.2 2.3
v -3.7 4.3 2.3
v -3.6 4.2 2.3
v -3.6 4.3 2.3
v -3.6 4.1 2.2
v -3.6 4.2 2.2
v -3.6 4.3 2.2
v -3.6 4.4 2.2
v -3.5 4.1 2.2
v -3.5 4.3 2.2
v -3.5 4.4 2.2
v -3.7 4.1 2.1
v -3.7 4.2 2.1
v -3.7 4.3 2.1
v -3.6 4.1 2.1
v -3.6 4.2 2.1
v -3.6 4.3 2.1
v -3.6 4.1 2
v -3.6 4.2 2
v -3.6 4.3 2
v -3.6 4.4 2
v -3.5 4.1 2
v -3.5 4.4 2
v -3.6 4.2 1.8
v -3.6 4.3 1.8
v -3.6 4.5 1.8
v -3.5 4.2 1.8
v -3.5 4.3 1.8
v -3.5 4.5 1.8
v -3.7 4.3 2.8
v -3.7 4.4 2.8
v -3.6 4.3 2.8
v -3.6 4.4 2.8
v -3.7 4.1 2.7
v -3.7 4.3 2.7
v -3.6 4.1 2.7
v -3.6 4.2 2.7
v -3.6 4.3 2.7
v -3.6 4.1 2.5
v -3.6 4.3 2.5
v -3.6 4.4 2.5
v -3.6 4.5 2.5
v -3.5 4.1 2.5
v -3.5 4.5 2.5
v -3.7 4.2 2.4
v -3.7 4.3 2.4
v -3.7 4.4 2.4
v -3.6 4.2 2.4
v -3.6 4.3 2.4
v -3.6 4.4 2.4
v -3.7 4.1 2.2
v -3.7 4.2 2.2
v -3.7 4.3 2.2
v -3.6 4.1 2.2
v -3.6 4.2 2.2
v -3.6 4.3 2.2
v -3.6 4.1 2.1
v -3.6 4.2 2.1
v -3.6 4.3 2.1
v -3.6 4.4 2.1
v -3.5 4.1 2.1
v -3.5 4.3 2.1
v -3.5 4.4 2.1
v -3.7 4.1 2
v -3.7 4.2 2
v -3.7 4.3 2
v -3.6 4.1 2
v -3.6 4.2 2
v -3.6 4.3 2
v -3.6 4.2 1.9
v -3.6 4.4 1.9
v -3.5 4.2 1.9
v -3.5 4.4 1.9
v -3.6 4.1 1.7
v -3.6 4.3 1.7
v -3.6 4.5 1.7
v -3.5 4.1 1.7
v -3.5 4.3 1.7
v -3.5 4.5 1.7
v -3.7 4.1 2.9
v -3.6 4.1 2.9
v -3.7 4.1 2.7
v -3.6 4.1 2.7
v -3.5 4.1 2.7
v -3.6 4.1 2.6
v -3.5 4.1 2.6
v -3.7 4.1 2.5
v -3.6 4.1 2.5
v -3.5 4.1 2.5
v -3.7 4.1 2.4
v -3.6 4.1 2.4
v -3.7 4.1 2.3
v -3.6 4.1 2.3
v -3.7 4.1 2.2
v -3.6 4.1 2.2
v -3.5 4.1 2.2
v -3.7 4.1 2.1
v -3.6 4.1 2.1
v -3.5 4.1 2.1
v -3.7 4.1 2
v -3.6 4.1 2
v -3.5 4.1 2
v -3.6 4.1 1.7
v -3.5 4.1 1.7
v -3.6 4.2 2.7
v -3.5 4.2 2.7
v -3.6 4.2 2.6
v -3.5 4.2 2.6
v -3.7 4.2 2.4
v -3.6 4.2 2.4
v -3.7 4.2 2.3
v -3.6 4.2 2.3
v -3.6 4.2 1.9
v -3.5 4.2 1.9
v -3.6 4.2 1.8
v -3.5 4.2 1.8
v -3.7 4.3 2.8
v -3.6 4.3 2.8
v -3.7 4.3 2.7
v -3.6 4.3 2.7
v -3.7 4.3 2.3
v -3.6 4.3 2.3
v -3.7 4.3 2.2
v -3.6 4.3 2.2
v -3.7 4.3 2.1
v -3.6 4.3 2.1
v -3.7 4.3 2
v -3.6 4.3 2
v -3.7 4.4 2.9
v -3.6 4.4 2.9
v -3.7 4.4 2.8
v -3.6 4.4 2.8
v -3.7 4.4 2.5
v -3.6 4.4 2.5
v -3.7 4.4 2.4
v -3.6 4.4 2.4
v -3.6 4.4 2.2
v -3.5 4.4 2.2
v -3.6 4.4 2.1
v -3.5 4.4 2.1
v -3.6 4.4 2
v -3.5 4.4 2
v -3.6 4.4 1.9
v -3.5 4.4 1.9
v -3.6 4.5 2.6
v -3.5 4.5 2.6
v -3.6 4.5 2.5
v -3.5 4.5 2.5
v -3.6 4.5 1.8
v -3.5 4.5 1.8
v -3.6 4.5 1.7
v -3.5 4.5 1.7

# faces
f 9/1/1 2/1/1 1/1/1
f 10/1/1 2/1/1 9/1/1
f 11/1/1 4/1/1 3/1/1
f 11/2/1 5/2/1 4/2/1
f 12/1/1 6/1/1 5/1/1
f 12/2/1 5/2/1 11/2/1
f 13/1/1 6/1/1 12/1/1
f 14/2/1 8/2/1 7/2/1
f 15/2/1 8/2/1 14/2/1
f 16/1/1 2/1/1 10/1/1
f 16/2/1 10/2/1 9/2/1
f 17/1/1 2/1/1 16/1/1
f 18/1/1 11/1/1 3/1/1
f 19/1/1 11/1/1 18/1/1
f 20/2/1 13/2/1 12/2/1
f 21/2/1 13/2/1 20/2/1
f 22/1/1 15/1/1 14/1/1
f 23/1/1 15/1/1 22/1/1
f 24/2/1 16/2/1 9/2/1
f 25/2/1 16/2/1 24/2/1
f 26/2/1 19/2/1 18/2/1
f 27/2/1 19/2/1 26/2/1
f 35/1/1 29/1/1 28/1/1
f 36/2/1 30/2/1 29/2/1
f 36/1/1 29/1/1 35/1/1
f 37/2/1 32/2/1 31/2/1
f 38/2/1 32/2/1 37/2/1
f 39/2/1 34/2/1 33/2/1
f 40/2/1 34/2/1 39/2/1
f 41/2/1 34/2/1 40/2/1
f 42/2/1 30/2/1 36/2/1
f 43/2/1 38/2/1 37/2/1
f 44/2/1 38/2/1 43/2/1
f 45/2/1 40/2/1 39/2/1
f 46/2/1 34/2/1 41/2/1
f 47/2/1 34/2/1 46/2/1
f 48/2/1 42/2/1 36/2/1
f 49/1/1 44/1/1 43/1/1
f 50/1/1 44/1/1 49/1/1
f 51/2/1 40/2/1 45/2/1
f 52/2/1 40/2/1 51/2/1
f 53/2/1 48/2/1 36/2/1
f 54/2/1 48/2/1 53/2/1
f 55/1/1 47/1/1 46/1/1
f 56/1/1 47/1/1 55/1/1
f 57/1/2 58/1/2 65/1/2
f 65/1/2 58/1/2 66/1/2
f 66/1/2 58/1/2 67/1/2
f 59/1/2 60/1/2 68/1/2
f 60/2/2 61/2/2 68/2/2
f 61/1/2 62/1/2 69/1/2
f 68/2/2 61/2/2 69/2/2
f 69/1/2 62/1/2 70/1/2
f 63/2/2 64/2/2 71/2/2
f 71/2/2 64/2/2 72/2/2
f 66/1/2 67/1/2 73/1/2
f 65/2/2 66/2/2 73/2/2
f 73/1/2 67/1/2 74/1/2
f 59/1/2 68/1/2 75/1/2
f 75/1/2 68/1/2 76/1/2
f 69/2/2 70/2/2 77/2/2
f 77/2/2 70/2/2 78/2/2
f 71/1/2 72/1/2 79/1/2
f 79/1/2 72/1/2 80/1/2
f 65/2/2 73/2/2 81/2/2
f 81/2/2 73/2/2 82/2/2
f 75/2/2 76/2/2 83/2/2
f 83/2/2 76/2/2 84/2/2
f 85/1/2 86/1/2 92/1/2
f 86/2/2 87/2/2 93/2/2
f 92/1/2 86/1/2 93/1/2
f 90/2/2 91/2/2 94/2/2
f 94/2/2 91/2/2 95/2/2
f 88/2/2 89/2/2 96/2/2
f 96/2/2 89/2/2 97/2/2
f 95/2/2 91/2/2 98/2/2
f 98/2/2 91/2/2 99/2/2
f 96/1/2 97/1/2 100/1/2
f 100/1/2 97/1/2 101/1/2
f 90/2/2 94/2/2 102/2/2
f 102/2/2 94/2/2 103/2/2
f 93/2/2 87/2/2 104/2/2
f 104/2/2 87/2/2 105/2/2
f 98/1/2 99/1/2 106/1/2
f 106/1/2 99/1/2 107/1/2
f 111/1/3 109/1/3 108/1/3
f 112/2/3 110/2/3 109/2/3
f 112/1/3 109/1/3 111/1/3
f 113/2/3 110/2/3 112/2/3
f 116/1/3 115/1/3 114/1/3
f 117/1/3 115/1/3 116/1/3
f 120/2/3 119/2/3 118/2/3
f 121/2/3 119/2/3 120/2/3
f 125/1/3 123/1/3 122/1/3
f 126/2/3 124/2/3 123/2/3
f 126/1/3 123/1/3 125/1/3
f 127/2/3 124/2/3 126/2/3
f 130/2/3 129/2/3 128/2/3
f 131/2/3 129/2/3 130/2/3
f 136/2/3 133/2/3 132/2/3
f 136/2/3 134/2/3 133/2/3
f 137/1/3 135/1/3 134/1/3
f 137/2/3 134/2/3 136/2/3
f 138/1/3 135/1/3 137/1/3
f 142/2/3 140/2/3 139/2/3
f 143/1/3 141/1/3 140/1/3
f 143/2/3 140/2/3 142/2/3
f 144/1/3 141/1/3 143/1/3
f 149/2/3 146/2/3 145/2/3
f 149/2/3 148/2/3 147/2/3
f 149/2/3 147/2/3 146/2/3
f 150/2/3 148/2/3 149/2/3
f 154/2/3 152/2/3 151/2/3
f 155/1/3 153/1/3 152/1/3
f 155/2/3 152/2/3 154/2/3
f 156/1/3 153/1/3 155/1/3
f 157/2/4 158/2/4 159/2/4
f 159/2/4 158/2/4 160/2/4
f 161/1/4 162/1/4 163/1/4
f 163/1/4 162/1/4 164/1/4
f 164/1/4 162/1/4 165/1/4
f 166/2/4 167/2/4 170/2/4
f 168/2/4 169/2/4 170/2/4
f 167/2/4 168/2/4 170/2/4
f 170/2/4 169/2/4 171/2/4
f 172/1/4 173/1/4 175/1/4
f 173/2/4 174/2/4 176/2/4
f 175/1/4 173/1/4 176/1/4
f 176/2/4 174/2/4 177/2/4
f 178/1/4 179/1/4 181/1/4
f 179/2/4 180/2/4 182/2/4
f 181/1/4 179/1/4 182/1/4
f 182/2/4 180/2/4 183/2/4
f 184/2/4 185/2/4 188/2/4
f 185/2/4 186/2/4 188/2/4
f 186/1/4 187/1/4 189/1/4
f 188/2/4 186/2/4 189/2/4
f 189/1/4 187/1/4 190/1/4
f 191/2/4 192/2/4 194/2/4
f 192/1/4 193/1/4 195/1/4
f 194/2/4 192/2/4 195/2/4
f 195/1/4 193/1/4 196/1/4
f 197/2/4 198/2/4 199/2/4
f 199/2/4 198/2/4 200/2/4
f 201/2/4 202/2/4 204/2/4
f 202/1/4 203/1/4 205/1/4
f 204/2/4 202/2/4 205/2/4
f 205/1/4 203/1/4 206/1/4
f 209/1/5 208/1/5 207/1/5
f 210/1/5 208/1/5 209/1/5
f 212/1/5 211/1/5 210/1/5
f 213/1/5 211/1/5 212/1/5
f 215/2/5 213/2/5 212/2/5
f 216/2/5 213/2/5 215/2/5
f 217/1/5 215/1/5 214/1/5
f 218/1/5 215/1/5 217/1/5
f 219/2/5 218/2/5 217/2/5
f 220/2/5 218/2/5 219/2/5
f 221/1/5 220/1/5 219/1/5
f 222/1/5 220/1/5 221/1/5
f 225/2/5 223/2/5 222/2/5
f 226/2/5 223/2/5 225/2/5
f 227/2/5 225/2/5 224/2/5
f 228/2/5 225/2/5 227/2/5
f 230/2/5 229/2/5 228/2/5
f 231/2/5 229/2/5 230/2/5
f 232/1/6 233/1/6 234/1/6
f 234/1/6 233/1/6 235/1/6
f 236/2/6 237/2/6 238/2/6
f 238/2/6 237/2/6 239/2/6
f 240/2/6 241/2/6 242/2/6
f 242/2/6 241/2/6 243/2/6
f 244/1/6 245/1/6 246/1/6
f 246/1/6 245/1/6 247/1/6
f 248/2/6 249/2/6 250/2/6
f 250/2/6 249/2/6 251/2/6
f 252/1/6 253/1/6 254/1/6
f 254/1/6 253/1/6 255/1/6
f 256/2/6 257/2/6 258/2/6
f 258/2/6 257/2/6 259/2/6
f 260/2/6 261/2/6 262/2/6
f 262/2/6 261/2/6 263/2/6
f 264/1/6 265/1/6 266/1/6
f 266/1/6 265/1/6 267/1/6
f 268/2/6 269/2/6 270/2/6
f 270/2/6 269/2/6 271/2/6
f 272/2/6 273/2/6 274/2/6
f 274/2/6 273/2/6 275/2/6
f 276/1/6 277/1/6 278/1/6
f 278/1/6 277/1/6 279/1/6
