# MagicaVoxel @ Ephtracy

# group
o 

# material
mtllib Assets-22.mtl
usemtl palette

# normals
vn -1 0 0
vn 1 0 0
vn 0 0 1
vn 0 0 -1
vn 0 -1 0
vn 0 1 0

# texcoords
vt 0.275391 0.5
vt 0.279297 0.5

# verts
v -3.7 4.1 1.7
v -3.7 4.1 1.6
v -3.7 4.1 1.5
v -3.7 4.1 1.4
v -3.7 4.1 1.3
v -3.7 4.1 1.2
v -3.7 4.1 1.1
v -3.7 4.1 1
v -3.7 4.1 0.9
v -3.7 4.1 0.8
v -3.7 4.1 0.7
v -3.7 4.1 0.6
v -3.7 4.2 1.7
v -3.7 4.2 1.6
v -3.7 4.2 1.1
v -3.7 4.2 1
v -3.7 4.2 0.9
v -3.7 4.2 0.8
v -3.7 4.2 0.7
v -3.7 4.2 0.6
v -3.7 4.3 1.5
v -3.7 4.3 1.4
v -3.7 4.3 1.3
v -3.7 4.3 1.2
v -3.7 4.3 1.1
v -3.7 4.3 1
v -3.7 4.3 0.9
v -3.7 4.3 0.8
v -3.7 4.3 0.7
v -3.7 4.3 0.6
v -3.7 4.4 1.7
v -3.7 4.4 1.6
v -3.7 4.4 1.3
v -3.7 4.4 1.2
v -3.7 4.4 0.9
v -3.7 4.4 0.8
v -3.6 4.1 1.6
v -3.6 4.1 1.5
v -3.6 4.1 1.4
v -3.6 4.1 1.3
v -3.6 4.1 1.2
v -3.6 4.1 1.1
v -3.6 4.1 1
v -3.6 4.1 0.9
v -3.6 4.1 0.8
v -3.6 4.1 0.7
v -3.6 4.1 0.6
v -3.6 4.1 0.5
v -3.6 4.2 1.6
v -3.6 4.2 1.2
v -3.6 4.2 1.1
v -3.6 4.2 1
v -3.6 4.2 0.9
v -3.6 4.2 0.8
v -3.6 4.2 0.7
v -3.6 4.2 0.6
v -3.6 4.3 1.6
v -3.6 4.3 1.5
v -3.6 4.3 1.4
v -3.6 4.3 1.3
v -3.6 4.3 1
v -3.6 4.3 0.9
v -3.6 4.3 0.8
v -3.6 4.3 0.7
v -3.6 4.3 0.6
v -3.6 4.3 0.5
v -3.6 4.4 1.6
v -3.6 4.4 1.5
v -3.6 4.4 1.3
v -3.6 4.4 0.8
v -3.6 4.4 0.7
v -3.6 4.5 1.4
v -3.6 4.5 1.3
v -3.6 4.5 0.6
v -3.6 4.5 0.5
v -3.6 4.1 1.7
v -3.6 4.1 1.6
v -3.6 4.1 1.5
v -3.6 4.1 1.4
v -3.6 4.1 1.3
v -3.6 4.1 1.2
v -3.6 4.1 1.1
v -3.6 4.1 1
v -3.6 4.1 0.9
v -3.6 4.1 0.8
v -3.6 4.1 0.7
v -3.6 4.1 0.6
v -3.6 4.2 1.7
v -3.6 4.2 1.6
v -3.6 4.2 1.2
v -3.6 4.2 1.1
v -3.6 4.2 1
v -3.6 4.2 0.9
v -3.6 4.2 0.8
v -3.6 4.2 0.7
v -3.6 4.2 0.6
v -3.6 4.3 1.6
v -3.6 4.3 1.5
v -3.6 4.3 1.4
v -3.6 4.3 1.3
v -3.6 4.3 1.2
v -3.6 4.3 1.1
v -3.6 4.3 1
v -3.6 4.3 0.9
v -3.6 4.3 0.8
v -3.6 4.3 0.7
v -3.6 4.3 0.6
v -3.6 4.4 1.7
v -3.6 4.4 1.6
v -3.6 4.4 1.3
v -3.6 4.4 1.2
v -3.6 4.4 0.9
v -3.6 4.4 0.8
v -3.5 4.1 1.6
v -3.5 4.1 1.5
v -3.5 4.1 1.4
v -3.5 4.1 1.3
v -3.5 4.1 1.2
v -3.5 4.1 1.1
v -3.5 4.1 1
v -3.5 4.1 0.9
v -3.5 4.1 0.8
v -3.5 4.1 0.7
v -3.5 4.1 0.6
v -3.5 4.1 0.5
v -3.5 4.2 1.2
v -3.5 4.2 1.1
v -3.5 4.3 1.6
v -3.5 4.3 1.5
v -3.5 4.3 1
v -3.5 4.3 0.9
v -3.5 4.3 0.6
v -3.5 4.3 0.5
v -3.5 4.4 1.6
v -3.5 4.4 1.5
v -3.5 4.4 0.8
v -3.5 4.4 0.7
v -3.5 4.5 1.4
v -3.5 4.5 1.3
v -3.5 4.5 0.6
v -3.5 4.5 0.5
v -3.7 4.1 1.7
v -3.7 4.2 1.7
v -3.7 4.4 1.7
v -3.6 4.1 1.7
v -3.6 4.2 1.7
v -3.6 4.4 1.7
v -3.6 4.1 1.6
v -3.6 4.2 1.6
v -3.6 4.3 1.6
v -3.6 4.4 1.6
v -3.5 4.1 1.6
v -3.5 4.3 1.6
v -3.5 4.4 1.6
v -3.7 4.1 1.5
v -3.7 4.3 1.5
v -3.6 4.1 1.5
v -3.6 4.3 1.5
v -3.6 4.1 1.4
v -3.6 4.3 1.4
v -3.6 4.5 1.4
v -3.5 4.1 1.4
v -3.5 4.5 1.4
v -3.7 4.1 1.3
v -3.7 4.3 1.3
v -3.7 4.4 1.3
v -3.6 4.1 1.3
v -3.6 4.3 1.3
v -3.6 4.4 1.3
v -3.6 4.1 1.2
v -3.6 4.2 1.2
v -3.5 4.1 1.2
v -3.5 4.2 1.2
v -3.7 4.1 1.1
v -3.7 4.2 1.1
v -3.7 4.3 1.1
v -3.6 4.1 1.1
v -3.6 4.2 1.1
v -3.6 4.3 1.1
v -3.6 4.1 1
v -3.6 4.2 1
v -3.6 4.3 1
v -3.5 4.1 1
v -3.5 4.3 1
v -3.7 4.1 0.9
v -3.7 4.2 0.9
v -3.7 4.3 0.9
v -3.7 4.4 0.9
v -3.6 4.1 0.9
v -3.6 4.2 0.9
v -3.6 4.3 0.9
v -3.6 4.4 0.9
v -3.6 4.1 0.8
v -3.6 4.2 0.8
v -3.6 4.3 0.8
v -3.6 4.4 0.8
v -3.5 4.1 0.8
v -3.5 4.4 0.8
v -3.7 4.1 0.7
v -3.7 4.2 0.7
v -3.7 4.3 0.7
v -3.6 4.1 0.7
v -3.6 4.2 0.7
v -3.6 4.3 0.7
v -3.6 4.1 0.6
v -3.6 4.2 0.6
v -3.6 4.3 0.6
v -3.6 4.5 0.6
v -3.5 4.1 0.6
v -3.5 4.3 0.6
v -3.5 4.5 0.6
v -3.7 4.1 1.6
v -3.7 4.2 1.6
v -3.7 4.4 1.6
v -3.6 4.1 1.6
v -3.6 4.2 1.6
v -3.6 4.3 1.6
v -3.6 4.4 1.6
v -3.6 4.1 1.5
v -3.6 4.3 1.5
v -3.6 4.4 1.5
v -3.5 4.1 1.5
v -3.5 4.3 1.5
v -3.5 4.4 1.5
v -3.7 4.1 1.4
v -3.7 4.3 1.4
v -3.6 4.1 1.4
v -3.6 4.3 1.4
v -3.6 4.1 1.3
v -3.6 4.3 1.3
v -3.6 4.4 1.3
v -3.6 4.5 1.3
v -3.5 4.1 1.3
v -3.5 4.5 1.3
v -3.7 4.1 1.2
v -3.7 4.3 1.2
v -3.7 4.4 1.2
v -3.6 4.1 1.2
v -3.6 4.2 1.2
v -3.6 4.3 1.2
v -3.6 4.4 1.2
v -3.6 4.1 1.1
v -3.6 4.2 1.1
v -3.5 4.1 1.1
v -3.5 4.2 1.1
v -3.7 4.1 1
v -3.7 4.2 1
v -3.7 4.3 1
v -3.6 4.1 1
v -3.6 4.2 1
v -3.6 4.3 1
v -3.6 4.1 0.9
v -3.6 4.2 0.9
v -3.6 4.3 0.9
v -3.5 4.1 0.9
v -3.5 4.3 0.9
v -3.7 4.1 0.8
v -3.7 4.2 0.8
v -3.7 4.3 0.8
v -3.7 4.4 0.8
v -3.6 4.1 0.8
v -3.6 4.2 0.8
v -3.6 4.3 0.8
v -3.6 4.4 0.8
v -3.6 4.1 0.7
v -3.6 4.2 0.7
v -3.6 4.3 0.7
v -3.6 4.4 0.7
v -3.5 4.1 0.7
v -3.5 4.4 0.7
v -3.7 4.1 0.6
v -3.7 4.2 0.6
v -3.7 4.3 0.6
v -3.6 4.1 0.6
v -3.6 4.2 0.6
v -3.6 4.3 0.6
v -3.6 4.1 0.5
v -3.6 4.3 0.5
v -3.6 4.5 0.5
v -3.5 4.1 0.5
v -3.5 4.3 0.5
v -3.5 4.5 0.5
v -3.7 4.1 1.7
v -3.6 4.1 1.7
v -3.7 4.1 1.6
v -3.6 4.1 1.6
v -3.5 4.1 1.6
v -3.7 4.1 1.5
v -3.6 4.1 1.5
v -3.5 4.1 1.5
v -3.7 4.1 1.4
v -3.6 4.1 1.4
v -3.5 4.1 1.4
v -3.7 4.1 1.3
v -3.6 4.1 1.3
v -3.5 4.1 1.3
v -3.7 4.1 1.2
v -3.6 4.1 1.2
v -3.5 4.1 1.2
v -3.7 4.1 1.1
v -3.6 4.1 1.1
v -3.5 4.1 1.1
v -3.7 4.1 1
v -3.6 4.1 1
v -3.5 4.1 1
v -3.7 4.1 0.9
v -3.6 4.1 0.9
v -3.5 4.1 0.9
v -3.7 4.1 0.8
v -3.6 4.1 0.8
v -3.5 4.1 0.8
v -3.7 4.1 0.7
v -3.6 4.1 0.7
v -3.5 4.1 0.7
v -3.7 4.1 0.6
v -3.6 4.1 0.6
v -3.5 4.1 0.6
v -3.6 4.1 0.5
v -3.5 4.1 0.5
v -3.6 4.2 1.2
v -3.5 4.2 1.2
v -3.6 4.2 1.1
v -3.5 4.2 1.1
v -3.7 4.3 1.5
v -3.6 4.3 1.5
v -3.7 4.3 1.4
v -3.6 4.3 1.4
v -3.7 4.3 1.1
v -3.6 4.3 1.1
v -3.7 4.3 1
v -3.6 4.3 1
v -3.5 4.3 1
v -3.6 4.3 0.9
v -3.5 4.3 0.9
v -3.7 4.3 0.7
v -3.6 4.3 0.7
v -3.7 4.3 0.6
v -3.6 4.3 0.6
v -3.7 4.4 1.7
v -3.6 4.4 1.7
v -3.7 4.4 1.6
v -3.6 4.4 1.6
v -3.5 4.4 1.6
v -3.6 4.4 1.5
v -3.5 4.4 1.5
v -3.7 4.4 1.3
v -3.6 4.4 1.3
v -3.7 4.4 1.2
v -3.6 4.4 1.2
v -3.7 4.4 0.9
v -3.6 4.4 0.9
v -3.7 4.4 0.8
v -3.6 4.4 0.8
v -3.5 4.4 0.8
v -3.6 4.4 0.7
v -3.5 4.4 0.7
v -3.6 4.5 1.4
v -3.5 4.5 1.4
v -3.6 4.5 1.3
v -3.5 4.5 1.3
v -3.6 4.5 0.6
v -3.5 4.5 0.6
v -3.6 4.5 0.5
v -3.5 4.5 0.5

# faces
f 13/1/1 2/1/1 1/1/1
f 14/1/1 2/1/1 13/1/1
f 15/1/1 8/1/1 7/1/1
f 16/1/1 8/1/1 15/1/1
f 17/2/1 10/2/1 9/2/1
f 18/2/1 10/2/1 17/2/1
f 19/1/1 12/1/1 11/1/1
f 20/1/1 12/1/1 19/1/1
f 21/1/1 4/1/1 3/1/1
f 22/1/1 4/1/1 21/1/1
f 23/1/1 6/1/1 5/1/1
f 24/1/1 6/1/1 23/1/1
f 25/2/1 16/2/1 15/2/1
f 26/2/1 16/2/1 25/2/1
f 27/1/1 18/1/1 17/1/1
f 28/1/1 18/1/1 27/1/1
f 29/2/1 20/2/1 19/2/1
f 30/2/1 20/2/1 29/2/1
f 31/2/1 14/2/1 13/2/1
f 32/2/1 14/2/1 31/2/1
f 33/2/1 24/2/1 23/2/1
f 34/2/1 24/2/1 33/2/1
f 35/2/1 28/2/1 27/2/1
f 36/2/1 28/2/1 35/2/1
f 49/2/1 38/2/1 37/2/1
f 50/1/1 42/1/1 41/1/1
f 51/1/1 42/1/1 50/1/1
f 52/2/1 44/2/1 43/2/1
f 53/2/1 44/2/1 52/2/1
f 54/2/1 46/2/1 45/2/1
f 55/2/1 46/2/1 54/2/1
f 56/2/1 48/2/1 47/2/1
f 57/2/1 38/2/1 49/2/1
f 58/2/1 38/2/1 57/2/1
f 59/2/1 40/2/1 39/2/1
f 60/2/1 40/2/1 59/2/1
f 61/2/1 53/2/1 52/2/1
f 62/2/1 53/2/1 61/2/1
f 63/2/1 55/2/1 54/2/1
f 64/2/1 55/2/1 63/2/1
f 65/2/1 48/2/1 56/2/1
f 66/2/1 48/2/1 65/2/1
f 67/1/1 58/1/1 57/1/1
f 68/1/1 58/1/1 67/1/1
f 69/2/1 60/2/1 59/2/1
f 70/2/1 64/2/1 63/2/1
f 71/2/1 64/2/1 70/2/1
f 72/2/1 69/2/1 59/2/1
f 73/2/1 69/2/1 72/2/1
f 74/1/1 66/1/1 65/1/1
f 75/1/1 66/1/1 74/1/1
f 76/1/2 77/1/2 88/1/2
f 88/1/2 77/1/2 89/1/2
f 80/1/2 81/1/2 90/1/2
f 82/1/2 83/1/2 91/1/2
f 91/1/2 83/1/2 92/1/2
f 84/2/2 85/2/2 93/2/2
f 93/2/2 85/2/2 94/2/2
f 86/1/2 87/1/2 95/1/2
f 95/1/2 87/1/2 96/1/2
f 88/2/2 89/2/2 97/2/2
f 78/1/2 79/1/2 98/1/2
f 98/1/2 79/1/2 99/1/2
f 80/1/2 90/1/2 100/1/2
f 100/1/2 90/1/2 101/1/2
f 91/2/2 92/2/2 102/2/2
f 102/2/2 92/2/2 103/2/2
f 93/1/2 94/1/2 104/1/2
f 104/1/2 94/1/2 105/1/2
f 95/2/2 96/2/2 106/2/2
f 106/2/2 96/2/2 107/2/2
f 88/2/2 97/2/2 108/2/2
f 108/2/2 97/2/2 109/2/2
f 100/2/2 101/2/2 110/2/2
f 110/2/2 101/2/2 111/2/2
f 104/2/2 105/2/2 112/2/2
f 112/2/2 105/2/2 113/2/2
f 118/1/2 119/1/2 126/1/2
f 126/1/2 119/1/2 127/1/2
f 114/2/2 115/2/2 128/2/2
f 128/2/2 115/2/2 129/2/2
f 120/2/2 121/2/2 130/2/2
f 130/2/2 121/2/2 131/2/2
f 124/2/2 125/2/2 132/2/2
f 132/2/2 125/2/2 133/2/2
f 128/1/2 129/1/2 134/1/2
f 134/1/2 129/1/2 135/1/2
f 122/2/2 123/2/2 136/2/2
f 136/2/2 123/2/2 137/2/2
f 116/2/2 117/2/2 138/2/2
f 138/2/2 117/2/2 139/2/2
f 132/1/2 133/1/2 140/1/2
f 140/1/2 133/1/2 141/1/2
f 145/1/3 143/1/3 142/1/3
f 146/2/3 144/2/3 143/2/3
f 146/1/3 143/1/3 145/1/3
f 147/2/3 144/2/3 146/2/3
f 152/2/3 149/2/3 148/2/3
f 152/2/3 150/2/3 149/2/3
f 153/1/3 151/1/3 150/1/3
f 153/2/3 150/2/3 152/2/3
f 154/1/3 151/1/3 153/1/3
f 157/1/3 156/1/3 155/1/3
f 158/1/3 156/1/3 157/1/3
f 162/2/3 160/2/3 159/2/3
f 162/2/3 161/2/3 160/2/3
f 163/2/3 161/2/3 162/2/3
f 167/1/3 165/1/3 164/1/3
f 168/2/3 166/2/3 165/2/3
f 168/1/3 165/1/3 167/1/3
f 169/2/3 166/2/3 168/2/3
f 172/1/3 171/1/3 170/1/3
f 173/1/3 171/1/3 172/1/3
f 177/1/3 175/1/3 174/1/3
f 178/2/3 176/2/3 175/2/3
f 178/1/3 175/1/3 177/1/3
f 179/2/3 176/2/3 178/2/3
f 183/2/3 181/2/3 180/2/3
f 183/2/3 182/2/3 181/2/3
f 184/2/3 182/2/3 183/2/3
f 189/2/3 186/2/3 185/2/3
f 190/1/3 187/1/3 186/1/3
f 190/2/3 186/2/3 189/2/3
f 191/2/3 188/2/3 187/2/3
f 191/1/3 187/1/3 190/1/3
f 192/2/3 188/2/3 191/2/3
f 197/2/3 194/2/3 193/2/3
f 197/2/3 196/2/3 195/2/3
f 197/2/3 195/2/3 194/2/3
f 198/2/3 196/2/3 197/2/3
f 202/1/3 200/1/3 199/1/3
f 203/2/3 201/2/3 200/2/3
f 203/1/3 200/1/3 202/1/3
f 204/2/3 201/2/3 203/2/3
f 209/2/3 206/2/3 205/2/3
f 209/2/3 207/2/3 206/2/3
f 210/1/3 208/1/3 207/1/3
f 210/2/3 207/2/3 209/2/3
f 211/1/3 208/1/3 210/1/3
f 212/1/4 213/1/4 215/1/4
f 213/2/4 214/2/4 216/2/4
f 215/1/4 213/1/4 216/1/4
f 216/2/4 214/2/4 217/2/4
f 217/2/4 214/2/4 218/2/4
f 219/2/4 220/2/4 222/2/4
f 220/1/4 221/1/4 223/1/4
f 222/2/4 220/2/4 223/2/4
f 223/1/4 221/1/4 224/1/4
f 225/1/4 226/1/4 227/1/4
f 227/1/4 226/1/4 228/1/4
f 229/2/4 230/2/4 233/2/4
f 231/2/4 232/2/4 233/2/4
f 230/2/4 231/2/4 233/2/4
f 233/2/4 232/2/4 234/2/4
f 235/1/4 236/1/4 238/1/4
f 238/1/4 236/1/4 239/1/4
f 236/2/4 237/2/4 240/2/4
f 239/1/4 236/1/4 240/1/4
f 240/2/4 237/2/4 241/2/4
f 242/1/4 243/1/4 244/1/4
f 244/1/4 243/1/4 245/1/4
f 246/1/4 247/1/4 249/1/4
f 247/2/4 248/2/4 250/2/4
f 249/1/4 247/1/4 250/1/4
f 250/2/4 248/2/4 251/2/4
f 252/2/4 253/2/4 255/2/4
f 253/2/4 254/2/4 255/2/4
f 255/2/4 254/2/4 256/2/4
f 257/2/4 258/2/4 261/2/4
f 258/1/4 259/1/4 262/1/4
f 261/2/4 258/2/4 262/2/4
f 259/2/4 260/2/4 263/2/4
f 262/1/4 259/1/4 263/1/4
f 263/2/4 260/2/4 264/2/4
f 265/2/4 266/2/4 269/2/4
f 267/2/4 268/2/4 269/2/4
f 266/2/4 267/2/4 269/2/4
f 269/2/4 268/2/4 270/2/4
f 271/1/4 272/1/4 274/1/4
f 272/2/4 273/2/4 275/2/4
f 274/1/4 272/1/4 275/1/4
f 275/2/4 273/2/4 276/2/4
f 277/2/4 278/2/4 280/2/4
f 278/1/4 279/1/4 281/1/4
f 280/2/4 278/2/4 281/2/4
f 281/1/4 279/1/4 282/1/4
f 285/1/5 284/1/5 283/1/5
f 286/1/5 284/1/5 285/1/5
f 289/2/5 287/2/5 286/2/5
f 290/2/5 287/2/5 289/2/5
f 291/1/5 289/1/5 288/1/5
f 292/1/5 289/1/5 291/1/5
f 295/2/5 293/2/5 292/2/5
f 296/2/5 293/2/5 295/2/5
f 297/1/5 295/1/5 294/1/5
f 298/1/5 295/1/5 297/1/5
f 301/1/5 299/1/5 298/1/5
f 302/1/5 299/1/5 301/1/5
f 303/1/5 301/1/5 300/1/5
f 304/1/5 301/1/5 303/1/5
f 307/2/5 305/2/5 304/2/5
f 308/2/5 305/2/5 307/2/5
f 309/2/5 307/2/5 306/2/5
f 310/2/5 307/2/5 309/2/5
f 313/2/5 311/2/5 310/2/5
f 314/2/5 311/2/5 313/2/5
f 315/1/5 313/1/5 312/1/5
f 316/1/5 313/1/5 315/1/5
f 318/2/5 317/2/5 316/2/5
f 319/2/5 317/2/5 318/2/5
f 320/1/6 321/1/6 322/1/6
f 322/1/6 321/1/6 323/1/6
f 324/1/6 325/1/6 326/1/6
f 326/1/6 325/1/6 327/1/6
f 328/2/6 329/2/6 330/2/6
f 330/2/6 329/2/6 331/2/6
f 331/2/6 332/2/6 333/2/6
f 333/2/6 332/2/6 334/2/6
f 335/2/6 336/2/6 337/2/6
f 337/2/6 336/2/6 338/2/6
f 339/2/6 340/2/6 341/2/6
f 341/2/6 340/2/6 342/2/6
f 342/1/6 343/1/6 344/1/6
f 344/1/6 343/1/6 345/1/6
f 346/2/6 347/2/6 348/2/6
f 348/2/6 347/2/6 349/2/6
f 350/2/6 351/2/6 352/2/6
f 352/2/6 351/2/6 353/2/6
f 353/2/6 354/2/6 355/2/6
f 355/2/6 354/2/6 356/2/6
f 357/2/6 358/2/6 359/2/6
f 359/2/6 358/2/6 360/2/6
f 361/1/6 362/1/6 363/1/6
f 363/1/6 362/1/6 364/1/6
