# MagicaVoxel @ Ephtracy

# group
o 

# material
mtllib Assets-8.mtl
usemtl palette

# normals
vn -1 0 0
vn 1 0 0
vn 0 0 1
vn 0 0 -1
vn 0 -1 0
vn 0 1 0

# texcoords
vt 0.361328 0.5
vt 0.986328 0.5

# verts
v -5.6 3.5 1.2
v -5.6 3.5 1.1
v -5.6 4.3 0.9
v -5.6 4.3 0.8
v -5.6 4.4 1.1
v -5.6 4.4 0.9
v -5.6 4.4 0.8
v -5.6 4.5 1.2
v -5.6 4.5 0.8
v -5.5 3.5 1.2
v -5.5 3.5 1.1
v -5.5 4.3 0.9
v -5.5 4.3 0.8
v -5.5 4.4 1.1
v -5.5 4.4 0.9
v -5.5 4.4 0.8
v -5.5 4.5 1.2
v -5.5 4.5 0.8
v -5.6 3.5 1.2
v -5.6 4.5 1.2
v -5.5 3.5 1.2
v -5.5 4.5 1.2
v -5.6 4.3 0.9
v -5.6 4.4 0.9
v -5.5 4.3 0.9
v -5.5 4.4 0.9
v -5.6 3.5 1.1
v -5.6 4.4 1.1
v -5.5 3.5 1.1
v -5.5 4.4 1.1
v -5.6 4.3 0.8
v -5.6 4.4 0.8
v -5.6 4.5 0.8
v -5.5 4.3 0.8
v -5.5 4.4 0.8
v -5.5 4.5 0.8
v -5.6 3.5 1.2
v -5.5 3.5 1.2
v -5.6 3.5 1.1
v -5.5 3.5 1.1
v -5.6 4.3 0.9
v -5.5 4.3 0.9
v -5.6 4.3 0.8
v -5.5 4.3 0.8
v -5.6 4.4 1.1
v -5.5 4.4 1.1
v -5.6 4.4 0.9
v -5.5 4.4 0.9
v -5.6 4.5 1.2
v -5.5 4.5 1.2
v -5.6 4.5 0.8
v -5.5 4.5 0.8

# faces
f 5/2/1 2/2/1 1/2/1
f 6/1/1 4/1/1 3/1/1
f 7/1/1 4/1/1 6/1/1
f 8/2/1 5/2/1 1/2/1
f 8/2/1 6/2/1 5/2/1
f 8/2/1 7/2/1 6/2/1
f 9/2/1 7/2/1 8/2/1
f 10/2/2 11/2/2 14/2/2
f 12/1/2 13/1/2 15/1/2
f 15/1/2 13/1/2 16/1/2
f 10/2/2 14/2/2 17/2/2
f 14/2/2 15/2/2 17/2/2
f 15/2/2 16/2/2 17/2/2
f 17/2/2 16/2/2 18/2/2
f 21/2/3 20/2/3 19/2/3
f 22/2/3 20/2/3 21/2/3
f 25/1/3 24/1/3 23/1/3
f 26/1/3 24/1/3 25/1/3
f 27/2/4 28/2/4 29/2/4
f 29/2/4 28/2/4 30/2/4
f 31/1/4 32/1/4 34/1/4
f 32/2/4 33/2/4 35/2/4
f 34/1/4 32/1/4 35/1/4
f 35/2/4 33/2/4 36/2/4
f 39/2/5 38/2/5 37/2/5
f 40/2/5 38/2/5 39/2/5
f 43/1/5 42/1/5 41/1/5
f 44/1/5 42/1/5 43/1/5
f 47/2/5 46/2/5 45/2/5
f 48/2/5 46/2/5 47/2/5
f 49/2/6 50/2/6 51/2/6
f 51/2/6 50/2/6 52/2/6
