# MagicaVoxel @ Ephtracy

# group
o 

# material
mtllib Assets-1.mtl
usemtl palette

# normals
vn -1 0 0
vn 1 0 0
vn 0 0 1
vn 0 0 -1
vn 0 -1 0
vn 0 1 0

# texcoords
vt 0.0449219 0.5
vt 0.712891 0.5
vt 0.974609 0.5

# verts
v 2.5 2.9 1.4
v 2.5 2.9 1
v 2.5 3.5 1.4
v 2.5 3.5 1
v 2.6 2.9 1.3
v 2.6 2.9 1.1
v 2.6 3 1.3
v 2.6 3 1.1
v 2.7 2.9 1.4
v 2.7 2.9 1.3
v 2.7 2.9 1.1
v 2.7 2.9 1
v 2.7 3 1.3
v 2.7 3 1.1
v 2.7 3.1 1.4
v 2.7 3.1 1.3
v 2.7 3.1 1.2
v 2.7 3.1 1
v 2.7 3.2 1.4
v 2.7 3.2 1.3
v 2.7 3.3 1.4
v 2.7 3.3 1.3
v 2.7 3.4 1.4
v 2.7 3.4 1.3
v 2.7 3.4 1.2
v 2.7 3.4 1
v 2.7 3.5 1.4
v 2.7 3.5 1
v 2.5 2.9 1.4
v 2.5 3.5 1.4
v 2.6 3.1 1.4
v 2.6 3.2 1.4
v 2.6 3.3 1.4
v 2.6 3.4 1.4
v 2.7 2.9 1.4
v 2.7 3.1 1.4
v 2.7 3.2 1.4
v 2.7 3.3 1.4
v 2.7 3.4 1.4
v 2.7 3.5 1.4
v 2.6 2.9 1.1
v 2.6 3 1.1
v 2.7 2.9 1.1
v 2.7 3 1.1
v 2.6 2.9 1.3
v 2.6 3 1.3
v 2.7 2.9 1.3
v 2.7 3 1.3
v 2.5 2.9 1
v 2.5 3.5 1
v 2.6 3.1 1
v 2.6 3.4 1
v 2.7 2.9 1
v 2.7 3.1 1
v 2.7 3.4 1
v 2.7 3.5 1
v 2.5 2.9 1.4
v 2.7 2.9 1.4
v 2.6 2.9 1.3
v 2.7 2.9 1.3
v 2.6 2.9 1.1
v 2.7 2.9 1.1
v 2.5 2.9 1
v 2.7 2.9 1
v 2.6 3 1.3
v 2.7 3 1.3
v 2.6 3 1.1
v 2.7 3 1.1
v 2.5 3.5 1.4
v 2.7 3.5 1.4
v 2.5 3.5 1
v 2.7 3.5 1

# faces
f 3/1/1 2/1/1 1/1/1
f 4/1/1 2/1/1 3/1/1
f 5/1/2 6/1/2 7/1/2
f 7/1/2 6/1/2 8/1/2
f 9/1/2 10/1/2 13/1/2
f 11/1/2 12/1/2 14/1/2
f 9/1/2 13/1/2 15/1/2
f 13/1/2 14/1/2 15/1/2
f 15/1/2 14/1/2 16/1/2
f 16/1/2 14/1/2 17/1/2
f 14/1/2 12/1/2 18/1/2
f 17/1/2 14/1/2 18/1/2
f 15/3/2 16/3/2 19/3/2
f 16/1/2 17/1/2 20/1/2
f 19/3/2 16/3/2 20/3/2
f 19/1/2 20/1/2 21/1/2
f 20/1/2 17/1/2 22/1/2
f 21/1/2 20/1/2 22/1/2
f 21/3/2 22/3/2 23/3/2
f 22/1/2 17/1/2 24/1/2
f 23/3/2 22/3/2 24/3/2
f 17/2/2 18/2/2 25/2/2
f 24/1/2 17/1/2 25/1/2
f 25/2/2 18/2/2 26/2/2
f 23/1/2 24/1/2 27/1/2
f 24/1/2 25/1/2 27/1/2
f 25/1/2 26/1/2 27/1/2
f 27/1/2 26/1/2 28/1/2
f 31/1/3 30/1/3 29/1/3
f 32/1/3 30/1/3 31/1/3
f 33/1/3 30/1/3 32/1/3
f 34/1/3 30/1/3 33/1/3
f 35/1/3 31/1/3 29/1/3
f 36/3/3 32/3/3 31/3/3
f 36/1/3 31/1/3 35/1/3
f 37/1/3 33/1/3 32/1/3
f 37/3/3 32/3/3 36/3/3
f 38/3/3 34/3/3 33/3/3
f 38/1/3 33/1/3 37/1/3
f 39/1/3 30/1/3 34/1/3
f 39/3/3 34/3/3 38/3/3
f 40/1/3 30/1/3 39/1/3
f 43/1/3 42/1/3 41/1/3
f 44/1/3 42/1/3 43/1/3
f 45/1/4 46/1/4 47/1/4
f 47/1/4 46/1/4 48/1/4
f 49/1/4 50/1/4 51/1/4
f 51/1/4 50/1/4 52/1/4
f 49/1/4 51/1/4 53/1/4
f 51/2/4 52/2/4 54/2/4
f 53/1/4 51/1/4 54/1/4
f 52/1/4 50/1/4 55/1/4
f 54/2/4 52/2/4 55/2/4
f 55/1/4 50/1/4 56/1/4
f 59/1/5 58/1/5 57/1/5
f 60/1/5 58/1/5 59/1/5
f 61/1/5 59/1/5 57/1/5
f 63/1/5 61/1/5 57/1/5
f 63/1/5 62/1/5 61/1/5
f 64/1/5 62/1/5 63/1/5
f 67/1/5 66/1/5 65/1/5
f 68/1/5 66/1/5 67/1/5
f 69/1/6 70/1/6 71/1/6
f 71/1/6 70/1/6 72/1/6
