# MagicaVoxel @ Ephtracy

# group
o 

# material
mtllib Assets-11.mtl
usemtl palette

# normals
vn -1 0 0
vn 1 0 0
vn 0 0 1
vn 0 0 -1
vn 0 -1 0
vn 0 1 0

# texcoords
vt 0.373047 0.5
vt 0.978516 0.5
vt 0.986328 0.5

# verts
v -4.8 3.5 1.2
v -4.8 3.5 1.1
v -4.8 3.7 1.2
v -4.8 3.7 1.1
v -4.8 3.9 1.2
v -4.8 3.9 1.1
v -4.8 4.4 1.1
v -4.8 4.4 0.9
v -4.8 4.5 1.1
v -4.8 4.5 0.9
v -4.8 4.7 1.4
v -4.8 4.7 1.2
v -4.8 4.8 1.4
v -4.8 4.8 1.2
v -4.8 5 1.1
v -4.8 5 0.9
v -4.8 5.1 1.1
v -4.8 5.1 0.9
v -4.8 5.3 1.2
v -4.8 5.3 1.1
v -4.7 3.5 1.2
v -4.7 3.5 1.1
v -4.7 3.7 1.2
v -4.7 3.7 1.1
v -4.7 3.9 1.2
v -4.7 3.9 1.1
v -4.7 4.4 1.1
v -4.7 4.4 0.9
v -4.7 4.5 1.1
v -4.7 4.5 0.9
v -4.7 4.7 1.4
v -4.7 4.7 1.2
v -4.7 4.8 1.4
v -4.7 4.8 1.2
v -4.7 5 1.1
v -4.7 5 0.9
v -4.7 5.1 1.1
v -4.7 5.1 0.9
v -4.7 5.3 1.2
v -4.7 5.3 1.1
v -4.8 4.7 1.4
v -4.8 4.8 1.4
v -4.7 4.7 1.4
v -4.7 4.8 1.4
v -4.8 3.5 1.2
v -4.8 3.7 1.2
v -4.8 3.9 1.2
v -4.8 4.7 1.2
v -4.8 4.8 1.2
v -4.8 5.3 1.2
v -4.7 3.5 1.2
v -4.7 3.7 1.2
v -4.7 3.9 1.2
v -4.7 4.7 1.2
v -4.7 4.8 1.2
v -4.7 5.3 1.2
v -4.8 3.5 1.1
v -4.8 3.7 1.1
v -4.8 3.9 1.1
v -4.8 4.4 1.1
v -4.8 4.5 1.1
v -4.8 5 1.1
v -4.8 5.1 1.1
v -4.8 5.3 1.1
v -4.7 3.5 1.1
v -4.7 3.7 1.1
v -4.7 3.9 1.1
v -4.7 4.4 1.1
v -4.7 4.5 1.1
v -4.7 5 1.1
v -4.7 5.1 1.1
v -4.7 5.3 1.1
v -4.8 4.4 0.9
v -4.8 4.5 0.9
v -4.8 5 0.9
v -4.8 5.1 0.9
v -4.7 4.4 0.9
v -4.7 4.5 0.9
v -4.7 5 0.9
v -4.7 5.1 0.9
v -4.8 3.5 1.2
v -4.7 3.5 1.2
v -4.8 3.5 1.1
v -4.7 3.5 1.1
v -4.8 4.4 1.1
v -4.7 4.4 1.1
v -4.8 4.4 0.9
v -4.7 4.4 0.9
v -4.8 4.7 1.4
v -4.7 4.7 1.4
v -4.8 4.7 1.2
v -4.7 4.7 1.2
v -4.8 5 1.1
v -4.7 5 1.1
v -4.8 5 0.9
v -4.7 5 0.9
v -4.8 4.5 1.1
v -4.7 4.5 1.1
v -4.8 4.5 0.9
v -4.7 4.5 0.9
v -4.8 4.8 1.4
v -4.7 4.8 1.4
v -4.8 4.8 1.2
v -4.7 4.8 1.2
v -4.8 5.1 1.1
v -4.7 5.1 1.1
v -4.8 5.1 0.9
v -4.7 5.1 0.9
v -4.8 5.3 1.2
v -4.7 5.3 1.2
v -4.8 5.3 1.1
v -4.7 5.3 1.1

# faces
f 3/2/1 2/2/1 1/2/1
f 4/2/1 2/2/1 3/2/1
f 5/1/1 4/1/1 3/1/1
f 6/1/1 4/1/1 5/1/1
f 7/2/1 6/2/1 5/2/1
f 9/2/1 7/2/1 5/2/1
f 9/3/1 8/3/1 7/3/1
f 10/3/1 8/3/1 9/3/1
f 12/2/1 9/2/1 5/2/1
f 13/3/1 12/3/1 11/3/1
f 14/2/1 9/2/1 12/2/1
f 14/3/1 12/3/1 13/3/1
f 15/2/1 9/2/1 14/2/1
f 17/2/1 15/2/1 14/2/1
f 17/3/1 16/3/1 15/3/1
f 18/3/1 16/3/1 17/3/1
f 19/2/1 17/2/1 14/2/1
f 20/2/1 17/2/1 19/2/1
f 21/2/2 22/2/2 23/2/2
f 23/2/2 22/2/2 24/2/2
f 23/1/2 24/1/2 25/1/2
f 25/1/2 24/1/2 26/1/2
f 25/2/2 26/2/2 27/2/2
f 25/2/2 27/2/2 29/2/2
f 27/3/2 28/3/2 29/3/2
f 29/3/2 28/3/2 30/3/2
f 25/2/2 29/2/2 32/2/2
f 31/3/2 32/3/2 33/3/2
f 32/2/2 29/2/2 34/2/2
f 33/3/2 32/3/2 34/3/2
f 34/2/2 29/2/2 35/2/2
f 34/2/2 35/2/2 37/2/2
f 35/3/2 36/3/2 37/3/2
f 37/3/2 36/3/2 38/3/2
f 34/2/2 37/2/2 39/2/2
f 39/2/2 37/2/2 40/2/2
f 43/3/3 42/3/3 41/3/3
f 44/3/3 42/3/3 43/3/3
f 51/2/3 46/2/3 45/2/3
f 52/1/3 47/1/3 46/1/3
f 52/2/3 46/2/3 51/2/3
f 53/2/3 48/2/3 47/2/3
f 53/1/3 47/1/3 52/1/3
f 54/2/3 48/2/3 53/2/3
f 55/2/3 50/2/3 49/2/3
f 56/2/3 50/2/3 55/2/3
f 57/2/4 58/2/4 65/2/4
f 58/1/4 59/1/4 66/1/4
f 65/2/4 58/2/4 66/2/4
f 59/2/4 60/2/4 67/2/4
f 66/1/4 59/1/4 67/1/4
f 67/2/4 60/2/4 68/2/4
f 61/2/4 62/2/4 69/2/4
f 69/2/4 62/2/4 70/2/4
f 63/2/4 64/2/4 71/2/4
f 71/2/4 64/2/4 72/2/4
f 73/3/4 74/3/4 77/3/4
f 77/3/4 74/3/4 78/3/4
f 75/3/4 76/3/4 79/3/4
f 79/3/4 76/3/4 80/3/4
f 83/2/5 82/2/5 81/2/5
f 84/2/5 82/2/5 83/2/5
f 87/3/5 86/3/5 85/3/5
f 88/3/5 86/3/5 87/3/5
f 91/3/5 90/3/5 89/3/5
f 92/3/5 90/3/5 91/3/5
f 95/3/5 94/3/5 93/3/5
f 96/3/5 94/3/5 95/3/5
f 97/3/6 98/3/6 99/3/6
f 99/3/6 98/3/6 100/3/6
f 101/3/6 102/3/6 103/3/6
f 103/3/6 102/3/6 104/3/6
f 105/3/6 106/3/6 107/3/6
f 107/3/6 106/3/6 108/3/6
f 109/2/6 110/2/6 111/2/6
f 111/2/6 110/2/6 112/2/6
