# MagicaVoxel @ Ephtracy

# group
o 

# material
mtllib pirata-0.mtl
usemtl palette

# normals
vn -1 0 0
vn 1 0 0
vn 0 0 1
vn 0 0 -1
vn 0 -1 0
vn 0 1 0

# texcoords
vt 0.111328 0.5
vt 0.115234 0.5
vt 0.248047 0.5
vt 0.373047 0.5
vt 0.759766 0.5
vt 0.767578 0.5
vt 0.962891 0.5

# verts
v 1.3 3.3 1.6
v 1.3 3.3 1.2
v 1.3 3.3 1.1
v 1.3 3.4 1.1
v 1.3 3.4 -0.8
v 1.3 3.8 -0.8
v 1.3 3.8 -0.9
v 1.3 4.3 -0.8
v 1.3 4.3 -0.9
v 1.3 4.4 -0.4
v 1.3 4.4 -0.8
v 1.3 4.5 -2.38419e-007
v 1.3 4.5 -0.4
v 1.3 4.6 0.4
v 1.3 4.6 -2.38419e-007
v 1.3 4.7 0.8
v 1.3 4.7 0.4
v 1.3 4.8 1.1
v 1.3 4.8 0.8
v 1.3 4.9 1.6
v 1.3 4.9 1.2
v 1.3 4.9 1.1
v 1.4 3.9 1.8
v 1.4 3.9 1.6
v 1.4 4 2.2
v 1.4 4 1.8
v 1.4 4.9 2.2
v 1.4 4.9 2.1
v 1.4 4.9 1.6
v 1.4 5 2.3
v 1.4 5 2.1
v 1.4 5 2
v 1.4 5 1.8
v 1.4 5 1.6
v 1.4 5.1 2.1
v 1.4 5.1 2
v 1.4 5.3 2.2
v 1.4 5.3 2.1
v 1.4 5.4 2.3
v 1.4 5.4 2.2
v 1.4 5.4 2.1
v 1.7 4 2.5
v 1.7 4 2.2
v 1.7 4.1 2.5
v 1.7 4.1 2.4
v 1.7 4.2 2.5
v 1.7 4.2 2.4
v 1.7 4.4 2.5
v 1.7 4.4 2.3
v 1.7 4.5 2.5
v 1.7 4.5 2.3
v 1.7 4.7 2.5
v 1.7 4.7 2.3
v 1.7 4.8 2.5
v 1.7 4.8 2.3
v 1.7 4.9 2.2
v 1.7 4.9 2.1
v 1.7 5 2.5
v 1.7 5 2.3
v 1.7 5 2.1
v 1.9 3.4 1.6
v 1.9 3.4 1.2
v 1.9 3.9 1.6
v 1.9 3.9 1.2
v 1.4 3.4 1.6
v 1.4 3.4 1.2
v 1.4 3.9 1.6
v 1.4 3.9 1.2
v 1.7 5 2.3
v 1.7 5 2
v 1.7 5.1 2.1
v 1.7 5.1 2
v 1.7 5.3 2.2
v 1.7 5.3 2.1
v 1.7 5.4 2.3
v 1.7 5.4 2.2
v 1.7 5.4 2.1
v 1.9 3.4 -0.1
v 1.9 3.4 -0.8
v 1.9 3.8 -0.8
v 1.9 3.8 -0.9
v 1.9 3.9 1.8
v 1.9 3.9 1.6
v 1.9 4 1.8
v 1.9 4.3 -0.8
v 1.9 4.3 -0.9
v 1.9 4.4 -0.4
v 1.9 4.4 -0.8
v 1.9 4.5 -0.1
v 1.9 4.5 -0.4
v 1.9 4.9 1.6
v 1.9 5 1.8
v 1.9 5 1.6
v 2 3.4 1.1
v 2 3.4 -0.1
v 2 4 2.5
v 2 4 2.4
v 2 4 1.8
v 2 4.1 2.5
v 2 4.1 2.4
v 2 4.2 2.5
v 2 4.2 2.4
v 2 4.4 2.5
v 2 4.4 2.4
v 2 4.4 2.3
v 2 4.5 2.5
v 2 4.5 2.4
v 2 4.5 2.3
v 2 4.5 -2.38419e-007
v 2 4.5 -0.1
v 2 4.6 0.4
v 2 4.6 -2.38419e-007
v 2 4.7 2.5
v 2 4.7 2.4
v 2 4.7 2.3
v 2 4.7 0.8
v 2 4.7 0.4
v 2 4.8 2.5
v 2 4.8 2.4
v 2 4.8 2.3
v 2 4.8 1.1
v 2 4.8 0.8
v 2 5 2.5
v 2 5 2.4
v 2 5 1.8
v 2.1 3.3 1.6
v 2.1 3.3 1.2
v 2.1 3.3 1.1
v 2.1 3.4 1.4
v 2.1 3.4 1.3
v 2.1 3.5 1.4
v 2.1 3.5 1.3
v 2.1 3.6 1.4
v 2.1 3.6 1.3
v 2.1 3.7 1.4
v 2.1 3.7 1.3
v 2.1 4.9 1.6
v 2.1 4.9 1.2
v 2.1 4.9 1.1
v 1.7 4 2.5
v 1.7 4.1 2.5
v 1.7 4.2 2.5
v 1.7 4.4 2.5
v 1.7 4.5 2.5
v 1.7 4.7 2.5
v 1.7 4.8 2.5
v 1.7 5 2.5
v 1.9 4 2.5
v 1.9 4.1 2.5
v 1.9 4.2 2.5
v 1.9 4.4 2.5
v 1.9 4.5 2.5
v 1.9 4.7 2.5
v 1.9 4.8 2.5
v 1.9 5 2.5
v 2 4 2.5
v 2 4.1 2.5
v 2 4.2 2.5
v 2 4.4 2.5
v 2 4.5 2.5
v 2 4.7 2.5
v 2 4.8 2.5
v 2 5 2.5
v 1.7 4.1 2.4
v 1.7 4.2 2.4
v 1.9 4.1 2.4
v 1.9 4.2 2.4
v 2 4.1 2.4
v 2 4.2 2.4
v 1.4 5 2.3
v 1.4 5.4 2.3
v 1.7 4.4 2.3
v 1.7 4.5 2.3
v 1.7 4.7 2.3
v 1.7 4.8 2.3
v 1.7 5 2.3
v 1.7 5.4 2.3
v 2 4.4 2.3
v 2 4.5 2.3
v 2 4.7 2.3
v 2 4.8 2.3
v 1.4 4 2.2
v 1.4 4.9 2.2
v 1.7 4 2.2
v 1.7 4.9 2.2
v 1.4 4.9 2.1
v 1.4 5 2.1
v 1.7 4.9 2.1
v 1.7 5 2.1
v 1.4 3.9 1.8
v 1.4 4 1.8
v 1.9 3.9 1.8
v 1.9 4 1.8
v 1.3 3.3 1.6
v 1.3 4.9 1.6
v 1.4 3.4 1.6
v 1.4 3.9 1.6
v 1.4 4.9 1.6
v 1.9 3.4 1.6
v 1.9 3.9 1.6
v 1.9 4.9 1.6
v 2.1 3.3 1.6
v 2.1 4.9 1.6
v 1.4 3.4 1.2
v 1.4 3.9 1.2
v 1.9 3.4 1.2
v 1.9 3.9 1.2
v 1.4 5.1 2.1
v 1.4 5.3 2.1
v 1.4 5.4 2.1
v 1.7 5.1 2.1
v 1.7 5.3 2.1
v 1.7 5.4 2.1
v 1.4 5 2
v 1.4 5.1 2
v 1.7 5 2
v 1.7 5.1 2
v 1.9 4 1.8
v 1.9 5 1.8
v 2 4 1.8
v 2 5 1.8
v 1.4 4.9 1.6
v 1.4 5 1.6
v 1.9 4.9 1.6
v 1.9 5 1.6
v 1.3 3.3 1.1
v 1.3 3.4 1.1
v 1.3 4.8 1.1
v 1.3 4.9 1.1
v 2 3.4 1.1
v 2 4.8 1.1
v 2.1 3.3 1.1
v 2.1 4.9 1.1
v 1.3 4.7 0.8
v 1.3 4.8 0.8
v 2 4.7 0.8
v 2 4.8 0.8
v 1.3 4.6 0.4
v 1.3 4.7 0.4
v 2 4.6 0.4
v 2 4.7 0.4
v 1.3 4.5 -2.38419e-007
v 1.3 4.6 -2.38419e-007
v 2 4.5 -2.38419e-007
v 2 4.6 -2.38419e-007
v 1.9 3.4 -0.1
v 1.9 4.5 -0.1
v 2 3.4 -0.1
v 2 4.5 -0.1
v 1.3 4.4 -0.4
v 1.3 4.5 -0.4
v 1.9 4.4 -0.4
v 1.9 4.5 -0.4
v 1.3 3.4 -0.8
v 1.3 3.8 -0.8
v 1.3 4.3 -0.8
v 1.3 4.4 -0.8
v 1.9 3.4 -0.8
v 1.9 3.8 -0.8
v 1.9 4.3 -0.8
v 1.9 4.4 -0.8
v 1.3 3.8 -0.9
v 1.3 4.3 -0.9
v 1.9 3.8 -0.9
v 1.9 4.3 -0.9
v 1.3 3.3 1.6
v 2.1 3.3 1.6
v 1.3 3.3 1.2
v 2.1 3.3 1.2
v 1.3 3.3 1.1
v 2.1 3.3 1.1
v 1.3 3.4 1.1
v 2 3.4 1.1
v 1.9 3.4 -0.1
v 2 3.4 -0.1
v 1.3 3.4 -0.8
v 1.9 3.4 -0.8
v 1.3 3.8 -0.8
v 1.9 3.8 -0.8
v 1.3 3.8 -0.9
v 1.9 3.8 -0.9
v 1.4 3.9 1.8
v 1.9 3.9 1.8
v 1.4 3.9 1.6
v 1.9 3.9 1.6
v 1.4 3.9 1.2
v 1.9 3.9 1.2
v 1.7 4 2.5
v 1.9 4 2.5
v 2 4 2.5
v 1.9 4 2.4
v 2 4 2.4
v 1.4 4 2.2
v 1.7 4 2.2
v 1.4 4 1.8
v 1.9 4 1.8
v 2 4 1.8
v 1.7 4.2 2.5
v 1.9 4.2 2.5
v 2 4.2 2.5
v 1.7 4.2 2.4
v 1.9 4.2 2.4
v 2 4.2 2.4
v 1.7 4.5 2.5
v 1.9 4.5 2.5
v 2 4.5 2.5
v 1.9 4.5 2.4
v 2 4.5 2.4
v 1.7 4.5 2.3
v 2 4.5 2.3
v 1.7 4.8 2.5
v 1.9 4.8 2.5
v 2 4.8 2.5
v 1.9 4.8 2.4
v 2 4.8 2.4
v 1.7 4.8 2.3
v 2 4.8 2.3
v 1.4 5 2.3
v 1.7 5 2.3
v 1.4 5 2.1
v 1.7 5 2.1
v 1.4 3.4 1.6
v 1.9 3.4 1.6
v 1.4 3.4 1.2
v 1.9 3.4 1.2
v 1.7 4.1 2.5
v 1.9 4.1 2.5
v 2 4.1 2.5
v 1.7 4.1 2.4
v 1.9 4.1 2.4
v 2 4.1 2.4
v 1.3 4.3 -0.8
v 1.9 4.3 -0.8
v 1.3 4.3 -0.9
v 1.9 4.3 -0.9
v 1.7 4.4 2.5
v 1.9 4.4 2.5
v 2 4.4 2.5
v 1.9 4.4 2.4
v 2 4.4 2.4
v 1.7 4.4 2.3
v 2 4.4 2.3
v 1.3 4.4 -0.4
v 1.9 4.4 -0.4
v 1.3 4.4 -0.8
v 1.9 4.4 -0.8
v 1.3 4.5 -2.38419e-007
v 2 4.5 -2.38419e-007
v 1.9 4.5 -0.1
v 2 4.5 -0.1
v 1.3 4.5 -0.4
v 1.9 4.5 -0.4
v 1.3 4.6 0.4
v 2 4.6 0.4
v 1.3 4.6 -2.38419e-007
v 2 4.6 -2.38419e-007
v 1.7 4.7 2.5
v 1.9 4.7 2.5
v 2 4.7 2.5
v 1.9 4.7 2.4
v 2 4.7 2.4
v 1.7 4.7 2.3
v 2 4.7 2.3
v 1.3 4.7 0.8
v 2 4.7 0.8
v 1.3 4.7 0.4
v 2 4.7 0.4
v 1.3 4.8 1.1
v 2 4.8 1.1
v 1.3 4.8 0.8
v 2 4.8 0.8
v 1.4 4.9 2.2
v 1.7 4.9 2.2
v 1.4 4.9 2.1
v 1.7 4.9 2.1
v 1.3 4.9 1.6
v 1.4 4.9 1.6
v 1.9 4.9 1.6
v 2.1 4.9 1.6
v 1.3 4.9 1.2
v 2.1 4.9 1.2
v 1.3 4.9 1.1
v 2.1 4.9 1.1
v 1.7 5 2.5
v 1.9 5 2.5
v 2 5 2.5
v 1.9 5 2.4
v 2 5 2.4
v 1.7 5 2.3
v 1.4 5 2
v 1.7 5 2
v 1.4 5 1.8
v 1.9 5 1.8
v 2 5 1.8
v 1.4 5 1.6
v 1.9 5 1.6
v 1.4 5.1 2.1
v 1.7 5.1 2.1
v 1.4 5.1 2
v 1.7 5.1 2
v 1.4 5.4 2.3
v 1.7 5.4 2.3
v 1.4 5.4 2.2
v 1.7 5.4 2.2
v 1.4 5.4 2.1
v 1.7 5.4 2.1

# faces
f 4/4/1 3/4/1 2/4/1
f 6/1/1 5/1/1 4/1/1
f 8/1/1 6/1/1 4/1/1
f 8/1/1 7/1/1 6/1/1
f 9/1/1 7/1/1 8/1/1
f 10/1/1 8/1/1 4/1/1
f 11/1/1 8/1/1 10/1/1
f 12/1/1 10/1/1 4/1/1
f 13/1/1 10/1/1 12/1/1
f 14/1/1 12/1/1 4/1/1
f 15/1/1 12/1/1 14/1/1
f 16/1/1 14/1/1 4/1/1
f 17/1/1 14/1/1 16/1/1
f 18/4/1 4/4/1 2/4/1
f 18/1/1 16/1/1 4/1/1
f 19/1/1 16/1/1 18/1/1
f 20/2/1 2/2/1 1/2/1
f 21/4/1 18/4/1 2/4/1
f 21/2/1 2/2/1 20/2/1
f 22/4/1 18/4/1 21/4/1
f 26/7/1 24/7/1 23/7/1
f 27/3/1 26/3/1 25/3/1
f 28/3/1 26/3/1 27/3/1
f 29/7/1 24/7/1 26/7/1
f 31/3/1 26/3/1 28/3/1
f 32/3/1 26/3/1 31/3/1
f 33/7/1 29/7/1 26/7/1
f 33/3/1 26/3/1 32/3/1
f 34/7/1 29/7/1 33/7/1
f 35/3/1 32/3/1 31/3/1
f 35/3/1 31/3/1 30/3/1
f 36/3/1 32/3/1 35/3/1
f 37/3/1 35/3/1 30/3/1
f 38/3/1 35/3/1 37/3/1
f 39/3/1 37/3/1 30/3/1
f 40/6/1 38/6/1 37/6/1
f 40/3/1 37/3/1 39/3/1
f 41/6/1 38/6/1 40/6/1
f 44/3/1 43/3/1 42/3/1
f 45/3/1 43/3/1 44/3/1
f 47/3/1 43/3/1 45/3/1
f 48/3/1 47/3/1 46/3/1
f 49/3/1 43/3/1 47/3/1
f 49/3/1 47/3/1 48/3/1
f 51/3/1 43/3/1 49/3/1
f 52/3/1 51/3/1 50/3/1
f 53/3/1 43/3/1 51/3/1
f 53/3/1 51/3/1 52/3/1
f 55/3/1 43/3/1 53/3/1
f 56/3/1 43/3/1 55/3/1
f 56/3/1 55/3/1 54/3/1
f 58/3/1 56/3/1 54/3/1
f 58/3/1 57/3/1 56/3/1
f 59/3/1 57/3/1 58/3/1
f 60/3/1 57/3/1 59/3/1
f 63/2/1 62/2/1 61/2/1
f 64/2/1 62/2/1 63/2/1
f 65/2/2 66/2/2 67/2/2
f 67/2/2 66/2/2 68/2/2
f 69/3/2 70/3/2 71/3/2
f 71/3/2 70/3/2 72/3/2
f 69/3/2 71/3/2 73/3/2
f 73/3/2 71/3/2 74/3/2
f 69/3/2 73/3/2 75/3/2
f 73/6/2 74/6/2 76/6/2
f 75/3/2 73/3/2 76/3/2
f 76/6/2 74/6/2 77/6/2
f 78/1/2 79/1/2 80/1/2
f 82/7/2 83/7/2 84/7/2
f 78/1/2 80/1/2 85/1/2
f 80/1/2 81/1/2 85/1/2
f 85/1/2 81/1/2 86/1/2
f 78/1/2 85/1/2 87/1/2
f 87/1/2 85/1/2 88/1/2
f 78/1/2 87/1/2 89/1/2
f 89/1/2 87/1/2 90/1/2
f 84/7/2 83/7/2 91/7/2
f 84/7/2 91/7/2 92/7/2
f 92/7/2 91/7/2 93/7/2
f 96/6/2 97/6/2 99/6/2
f 97/3/2 98/3/2 100/3/2
f 99/6/2 97/6/2 100/6/2
f 100/3/2 98/3/2 102/3/2
f 101/6/2 102/6/2 103/6/2
f 102/3/2 98/3/2 104/3/2
f 103/6/2 102/6/2 104/6/2
f 104/3/2 98/3/2 105/3/2
f 105/3/2 98/3/2 108/3/2
f 94/1/2 95/1/2 109/1/2
f 109/1/2 95/1/2 110/1/2
f 94/1/2 109/1/2 111/1/2
f 111/1/2 109/1/2 112/1/2
f 106/6/2 107/6/2 113/6/2
f 107/3/2 108/3/2 114/3/2
f 113/6/2 107/6/2 114/6/2
f 108/3/2 98/3/2 115/3/2
f 114/3/2 108/3/2 115/3/2
f 94/1/2 111/1/2 116/1/2
f 116/1/2 111/1/2 117/1/2
f 115/3/2 98/3/2 120/3/2
f 94/1/2 116/1/2 121/1/2
f 121/1/2 116/1/2 122/1/2
f 118/6/2 119/6/2 123/6/2
f 119/3/2 120/3/2 124/3/2
f 123/6/2 119/6/2 124/6/2
f 120/3/2 98/3/2 125/3/2
f 124/3/2 120/3/2 125/3/2
f 126/2/2 127/2/2 129/2/2
f 129/2/2 127/2/2 130/2/2
f 126/2/2 129/2/2 131/2/2
f 129/4/2 130/4/2 131/4/2
f 130/2/2 127/2/2 132/2/2
f 131/4/2 130/4/2 132/4/2
f 126/2/2 131/2/2 133/2/2
f 131/2/2 132/2/2 133/2/2
f 132/2/2 127/2/2 134/2/2
f 133/2/2 132/2/2 134/2/2
f 126/2/2 133/2/2 135/2/2
f 133/4/2 134/4/2 135/4/2
f 134/2/2 127/2/2 136/2/2
f 135/4/2 134/4/2 136/4/2
f 126/2/2 135/2/2 137/2/2
f 135/2/2 136/2/2 137/2/2
f 127/4/2 128/4/2 138/4/2
f 137/2/2 136/2/2 138/2/2
f 136/2/2 127/2/2 138/2/2
f 138/4/2 128/4/2 139/4/2
f 148/3/3 141/3/3 140/3/3
f 149/3/3 141/3/3 148/3/3
f 150/3/3 143/3/3 142/3/3
f 151/3/3 143/3/3 150/3/3
f 152/3/3 145/3/3 144/3/3
f 153/3/3 145/3/3 152/3/3
f 154/3/3 147/3/3 146/3/3
f 155/3/3 147/3/3 154/3/3
f 156/6/3 149/6/3 148/6/3
f 157/6/3 149/6/3 156/6/3
f 158/6/3 151/6/3 150/6/3
f 159/6/3 151/6/3 158/6/3
f 160/6/3 153/6/3 152/6/3
f 161/6/3 153/6/3 160/6/3
f 162/6/3 155/6/3 154/6/3
f 163/6/3 155/6/3 162/6/3
f 166/3/3 165/3/3 164/3/3
f 167/3/3 165/3/3 166/3/3
f 168/3/3 167/3/3 166/3/3
f 169/3/3 167/3/3 168/3/3
f 176/3/3 171/3/3 170/3/3
f 177/3/3 171/3/3 176/3/3
f 178/3/3 173/3/3 172/3/3
f 179/3/3 173/3/3 178/3/3
f 180/3/3 175/3/3 174/3/3
f 181/3/3 175/3/3 180/3/3
f 184/3/3 183/3/3 182/3/3
f 185/3/3 183/3/3 184/3/3
f 188/3/3 187/3/3 186/3/3
f 189/3/3 187/3/3 188/3/3
f 192/7/3 191/7/3 190/7/3
f 193/7/3 191/7/3 192/7/3
f 196/2/3 195/2/3 194/2/3
f 197/2/3 195/2/3 196/2/3
f 198/2/3 195/2/3 197/2/3
f 199/2/3 196/2/3 194/2/3
f 202/2/3 199/2/3 194/2/3
f 202/2/3 201/2/3 200/2/3
f 202/2/3 200/2/3 199/2/3
f 203/2/3 201/2/3 202/2/3
f 206/5/3 205/5/3 204/5/3
f 207/5/3 205/5/3 206/5/3
f 208/3/4 209/3/4 211/3/4
f 209/6/4 210/6/4 212/6/4
f 211/3/4 209/3/4 212/3/4
f 212/6/4 210/6/4 213/6/4
f 214/3/4 215/3/4 216/3/4
f 216/3/4 215/3/4 217/3/4
f 218/3/4 219/3/4 220/3/4
f 220/3/4 219/3/4 221/3/4
f 222/7/4 223/7/4 224/7/4
f 224/7/4 223/7/4 225/7/4
f 226/4/4 227/4/4 230/4/4
f 228/4/4 229/4/4 231/4/4
f 226/4/4 230/4/4 232/4/4
f 230/4/4 231/4/4 232/4/4
f 231/4/4 229/4/4 233/4/4
f 232/4/4 231/4/4 233/4/4
f 234/1/4 235/1/4 236/1/4
f 236/1/4 235/1/4 237/1/4
f 238/1/4 239/1/4 240/1/4
f 240/1/4 239/1/4 241/1/4
f 242/1/4 243/1/4 244/1/4
f 244/1/4 243/1/4 245/1/4
f 246/1/4 247/1/4 248/1/4
f 248/1/4 247/1/4 249/1/4
f 250/1/4 251/1/4 252/1/4
f 252/1/4 251/1/4 253/1/4
f 254/1/4 255/1/4 258/1/4
f 258/1/4 255/1/4 259/1/4
f 256/1/4 257/1/4 260/1/4
f 260/1/4 257/1/4 261/1/4
f 262/1/4 263/1/4 264/1/4
f 264/1/4 263/1/4 265/1/4
f 268/2/5 267/2/5 266/2/5
f 269/2/5 267/2/5 268/2/5
f 270/4/5 269/4/5 268/4/5
f 271/4/5 269/4/5 270/4/5
f 274/1/5 273/1/5 272/1/5
f 275/1/5 273/1/5 274/1/5
f 276/1/5 274/1/5 272/1/5
f 277/1/5 274/1/5 276/1/5
f 280/1/5 279/1/5 278/1/5
f 281/1/5 279/1/5 280/1/5
f 284/7/5 283/7/5 282/7/5
f 285/7/5 283/7/5 284/7/5
f 286/2/5 285/2/5 284/2/5
f 287/2/5 285/2/5 286/2/5
f 291/3/5 289/3/5 288/3/5
f 291/6/5 290/6/5 289/6/5
f 292/6/5 290/6/5 291/6/5
f 294/3/5 291/3/5 288/3/5
f 294/3/5 292/3/5 291/3/5
f 295/3/5 294/3/5 293/3/5
f 296/3/5 292/3/5 294/3/5
f 296/3/5 294/3/5 295/3/5
f 297/3/5 292/3/5 296/3/5
f 301/3/5 299/3/5 298/3/5
f 302/6/5 300/6/5 299/6/5
f 302/3/5 299/3/5 301/3/5
f 303/6/5 300/6/5 302/6/5
f 307/3/5 305/3/5 304/3/5
f 307/6/5 306/6/5 305/6/5
f 308/6/5 306/6/5 307/6/5
f 309/3/5 307/3/5 304/3/5
f 309/3/5 308/3/5 307/3/5
f 310/3/5 308/3/5 309/3/5
f 314/3/5 312/3/5 311/3/5
f 314/6/5 313/6/5 312/6/5
f 315/6/5 313/6/5 314/6/5
f 316/3/5 314/3/5 311/3/5
f 316/3/5 315/3/5 314/3/5
f 317/3/5 315/3/5 316/3/5
f 320/3/5 319/3/5 318/3/5
f 321/3/5 319/3/5 320/3/5
f 322/2/6 323/2/6 324/2/6
f 324/2/6 323/2/6 325/2/6
f 326/3/6 327/3/6 329/3/6
f 327/6/6 328/6/6 330/6/6
f 329/3/6 327/3/6 330/3/6
f 330/6/6 328/6/6 331/6/6
f 332/1/6 333/1/6 334/1/6
f 334/1/6 333/1/6 335/1/6
f 336/3/6 337/3/6 339/3/6
f 337/6/6 338/6/6 339/6/6
f 339/6/6 338/6/6 340/6/6
f 336/3/6 339/3/6 341/3/6
f 339/3/6 340/3/6 341/3/6
f 341/3/6 340/3/6 342/3/6
f 343/1/6 344/1/6 345/1/6
f 345/1/6 344/1/6 346/1/6
f 347/1/6 348/1/6 349/1/6
f 349/1/6 348/1/6 350/1/6
f 347/1/6 349/1/6 351/1/6
f 351/1/6 349/1/6 352/1/6
f 353/1/6 354/1/6 355/1/6
f 355/1/6 354/1/6 356/1/6
f 357/3/6 358/3/6 360/3/6
f 358/6/6 359/6/6 360/6/6
f 360/6/6 359/6/6 361/6/6
f 357/3/6 360/3/6 362/3/6
f 360/3/6 361/3/6 362/3/6
f 362/3/6 361/3/6 363/3/6
f 364/1/6 365/1/6 366/1/6
f 366/1/6 365/1/6 367/1/6
f 368/1/6 369/1/6 370/1/6
f 370/1/6 369/1/6 371/1/6
f 372/3/6 373/3/6 374/3/6
f 374/3/6 373/3/6 375/3/6
f 376/2/6 377/2/6 380/2/6
f 378/2/6 379/2/6 380/2/6
f 377/2/6 378/2/6 380/2/6
f 380/2/6 379/2/6 381/2/6
f 380/4/6 381/4/6 382/4/6
f 382/4/6 381/4/6 383/4/6
f 384/3/6 385/3/6 387/3/6
f 385/6/6 386/6/6 387/6/6
f 387/6/6 386/6/6 388/6/6
f 384/3/6 387/3/6 389/3/6
f 387/3/6 388/3/6 389/3/6
f 389/3/6 388/3/6 391/3/6
f 390/3/6 391/3/6 392/3/6
f 391/3/6 388/3/6 393/3/6
f 392/3/6 391/3/6 393/3/6
f 393/3/6 388/3/6 394/3/6
f 392/7/6 393/7/6 395/7/6
f 395/7/6 393/7/6 396/7/6
f 397/3/6 398/3/6 399/3/6
f 399/3/6 398/3/6 400/3/6
f 401/3/6 402/3/6 403/3/6
f 403/3/6 402/3/6 404/3/6
f 403/6/6 404/6/6 405/6/6
f 405/6/6 404/6/6 406/6/6
