# MagicaVoxel @ Ephtracy

# group
o 

# material
mtllib pirata-1.mtl
usemtl palette

# normals
vn -1 0 0
vn 1 0 0
vn 0 0 1
vn 0 0 -1
vn 0 -1 0
vn 0 1 0

# texcoords
vt 0.111328 0.5
vt 0.115234 0.5
vt 0.248047 0.5
vt 0.373047 0.5
vt 0.759766 0.5
vt 0.767578 0.5
vt 0.962891 0.5

# verts
v -2.1 3.3 1.6
v -2.1 3.3 1.2
v -2.1 3.3 1.1
v -2.1 3.4 1.4
v -2.1 3.4 1.3
v -2.1 3.5 1.4
v -2.1 3.5 1.3
v -2.1 3.6 1.4
v -2.1 3.6 1.3
v -2.1 3.7 1.4
v -2.1 3.7 1.3
v -2.1 4.9 1.6
v -2.1 4.9 1.2
v -2.1 4.9 1.1
v -2 3.4 1.1
v -2 3.4 -0.1
v -2 4 2.5
v -2 4 2.4
v -2 4 1.8
v -2 4.1 2.5
v -2 4.1 2.4
v -2 4.1 2.3
v -2 4.2 2.5
v -2 4.2 2.4
v -2 4.2 2.3
v -2 4.4 2.5
v -2 4.4 2.4
v -2 4.4 2.3
v -2 4.5 2.5
v -2 4.5 2.4
v -2 4.5 2.3
v -2 4.5 -2.38419e-007
v -2 4.5 -0.1
v -2 4.6 0.4
v -2 4.6 -2.38419e-007
v -2 4.7 2.5
v -2 4.7 2.4
v -2 4.7 2.3
v -2 4.7 0.8
v -2 4.7 0.4
v -2 4.8 2.5
v -2 4.8 2.4
v -2 4.8 2.3
v -2 4.8 1.1
v -2 4.8 0.8
v -2 5 2.5
v -2 5 2.4
v -2 5 1.8
v -1.9 3.4 -0.1
v -1.9 3.4 -0.8
v -1.9 3.8 -0.8
v -1.9 3.8 -0.9
v -1.9 3.9 1.8
v -1.9 3.9 1.6
v -1.9 4 1.8
v -1.9 4.3 -0.8
v -1.9 4.3 -0.9
v -1.9 4.4 -0.4
v -1.9 4.4 -0.8
v -1.9 4.5 -0.1
v -1.9 4.5 -0.4
v -1.9 4.9 1.6
v -1.9 5 1.8
v -1.9 5 1.6
v -1.7 5 2.3
v -1.7 5 2
v -1.7 5.1 2.1
v -1.7 5.1 2
v -1.7 5.3 2.2
v -1.7 5.3 2.1
v -1.7 5.4 2.3
v -1.7 5.4 2.2
v -1.7 5.4 2.1
v -1.4 3.4 1.6
v -1.4 3.4 1.2
v -1.4 3.9 1.6
v -1.4 3.9 1.2
v -1.9 3.4 1.6
v -1.9 3.4 1.2
v -1.9 3.9 1.6
v -1.9 3.9 1.2
v -1.7 4 2.5
v -1.7 4 2.2
v -1.7 4.1 2.5
v -1.7 4.1 2.3
v -1.7 4.2 2.5
v -1.7 4.2 2.3
v -1.7 4.4 2.5
v -1.7 4.4 2.3
v -1.7 4.5 2.5
v -1.7 4.5 2.3
v -1.7 4.7 2.5
v -1.7 4.7 2.3
v -1.7 4.8 2.5
v -1.7 4.8 2.3
v -1.7 4.9 2.2
v -1.7 4.9 2.1
v -1.7 5 2.5
v -1.7 5 2.3
v -1.7 5 2.1
v -1.4 3.9 1.8
v -1.4 3.9 1.6
v -1.4 4 2.2
v -1.4 4 1.8
v -1.4 4.9 2.2
v -1.4 4.9 2.1
v -1.4 4.9 1.6
v -1.4 5 2.3
v -1.4 5 2.1
v -1.4 5 2
v -1.4 5 1.8
v -1.4 5 1.6
v -1.4 5.1 2.1
v -1.4 5.1 2
v -1.4 5.3 2.2
v -1.4 5.3 2.1
v -1.4 5.4 2.3
v -1.4 5.4 2.2
v -1.4 5.4 2.1
v -1.3 3.3 1.6
v -1.3 3.3 1.2
v -1.3 3.3 1.1
v -1.3 3.4 1.1
v -1.3 3.4 -0.8
v -1.3 3.8 -0.8
v -1.3 3.8 -0.9
v -1.3 4.3 -0.8
v -1.3 4.3 -0.9
v -1.3 4.4 -0.4
v -1.3 4.4 -0.8
v -1.3 4.5 -2.38419e-007
v -1.3 4.5 -0.4
v -1.3 4.6 0.4
v -1.3 4.6 -2.38419e-007
v -1.3 4.7 0.8
v -1.3 4.7 0.4
v -1.3 4.8 1.1
v -1.3 4.8 0.8
v -1.3 4.9 1.6
v -1.3 4.9 1.2
v -1.3 4.9 1.1
v -2 4 2.5
v -2 4.1 2.5
v -2 4.2 2.5
v -2 4.4 2.5
v -2 4.5 2.5
v -2 4.7 2.5
v -2 4.8 2.5
v -2 5 2.5
v -1.9 4 2.5
v -1.9 4.1 2.5
v -1.9 4.2 2.5
v -1.9 4.4 2.5
v -1.9 4.5 2.5
v -1.9 4.7 2.5
v -1.9 4.8 2.5
v -1.9 5 2.5
v -1.7 4 2.5
v -1.7 4.1 2.5
v -1.7 4.2 2.5
v -1.7 4.4 2.5
v -1.7 4.5 2.5
v -1.7 4.7 2.5
v -1.7 4.8 2.5
v -1.7 5 2.5
v -2 4.1 2.3
v -2 4.2 2.3
v -2 4.4 2.3
v -2 4.5 2.3
v -2 4.7 2.3
v -2 4.8 2.3
v -1.7 4.1 2.3
v -1.7 4.2 2.3
v -1.7 4.4 2.3
v -1.7 4.5 2.3
v -1.7 4.7 2.3
v -1.7 4.8 2.3
v -1.7 5 2.3
v -1.7 5.4 2.3
v -1.4 5 2.3
v -1.4 5.4 2.3
v -1.7 4 2.2
v -1.7 4.9 2.2
v -1.4 4 2.2
v -1.4 4.9 2.2
v -1.7 4.9 2.1
v -1.7 5 2.1
v -1.4 4.9 2.1
v -1.4 5 2.1
v -1.9 3.9 1.8
v -1.9 4 1.8
v -1.4 3.9 1.8
v -1.4 4 1.8
v -2.1 3.3 1.6
v -2.1 4.9 1.6
v -1.9 3.4 1.6
v -1.9 3.9 1.6
v -1.9 4.9 1.6
v -1.4 3.4 1.6
v -1.4 3.9 1.6
v -1.4 4.9 1.6
v -1.3 3.3 1.6
v -1.3 4.9 1.6
v -1.9 3.4 1.2
v -1.9 3.9 1.2
v -1.4 3.4 1.2
v -1.4 3.9 1.2
v -1.7 5.1 2.1
v -1.7 5.3 2.1
v -1.7 5.4 2.1
v -1.4 5.1 2.1
v -1.4 5.3 2.1
v -1.4 5.4 2.1
v -1.7 5 2
v -1.7 5.1 2
v -1.4 5 2
v -1.4 5.1 2
v -2 4 1.8
v -2 5 1.8
v -1.9 4 1.8
v -1.9 5 1.8
v -1.9 4.9 1.6
v -1.9 5 1.6
v -1.4 4.9 1.6
v -1.4 5 1.6
v -2.1 3.3 1.1
v -2.1 4.9 1.1
v -2 3.4 1.1
v -2 4.8 1.1
v -1.3 3.3 1.1
v -1.3 3.4 1.1
v -1.3 4.8 1.1
v -1.3 4.9 1.1
v -2 4.7 0.8
v -2 4.8 0.8
v -1.3 4.7 0.8
v -1.3 4.8 0.8
v -2 4.6 0.4
v -2 4.7 0.4
v -1.3 4.6 0.4
v -1.3 4.7 0.4
v -2 4.5 -2.38419e-007
v -2 4.6 -2.38419e-007
v -1.3 4.5 -2.38419e-007
v -1.3 4.6 -2.38419e-007
v -2 3.4 -0.1
v -2 4.5 -0.1
v -1.9 3.4 -0.1
v -1.9 4.5 -0.1
v -1.9 4.4 -0.4
v -1.9 4.5 -0.4
v -1.3 4.4 -0.4
v -1.3 4.5 -0.4
v -1.9 3.4 -0.8
v -1.9 3.8 -0.8
v -1.9 4.3 -0.8
v -1.9 4.4 -0.8
v -1.3 3.4 -0.8
v -1.3 3.8 -0.8
v -1.3 4.3 -0.8
v -1.3 4.4 -0.8
v -1.9 3.8 -0.9
v -1.9 4.3 -0.9
v -1.3 3.8 -0.9
v -1.3 4.3 -0.9
v -2.1 3.3 1.6
v -1.3 3.3 1.6
v -2.1 3.3 1.2
v -1.3 3.3 1.2
v -2.1 3.3 1.1
v -1.3 3.3 1.1
v -2 3.4 1.1
v -1.3 3.4 1.1
v -2 3.4 -0.1
v -1.9 3.4 -0.1
v -1.9 3.4 -0.8
v -1.3 3.4 -0.8
v -1.9 3.8 -0.8
v -1.3 3.8 -0.8
v -1.9 3.8 -0.9
v -1.3 3.8 -0.9
v -1.9 3.9 1.8
v -1.4 3.9 1.8
v -1.9 3.9 1.6
v -1.4 3.9 1.6
v -1.9 3.9 1.2
v -1.4 3.9 1.2
v -2 4 2.5
v -1.9 4 2.5
v -1.7 4 2.5
v -2 4 2.4
v -1.9 4 2.4
v -1.7 4 2.2
v -1.4 4 2.2
v -2 4 1.8
v -1.9 4 1.8
v -1.4 4 1.8
v -2 4.2 2.5
v -1.9 4.2 2.5
v -1.7 4.2 2.5
v -2 4.2 2.4
v -1.9 4.2 2.4
v -2 4.2 2.3
v -1.7 4.2 2.3
v -2 4.5 2.5
v -1.9 4.5 2.5
v -1.7 4.5 2.5
v -2 4.5 2.4
v -1.9 4.5 2.4
v -2 4.5 2.3
v -1.7 4.5 2.3
v -2 4.8 2.5
v -1.9 4.8 2.5
v -1.7 4.8 2.5
v -2 4.8 2.4
v -1.9 4.8 2.4
v -2 4.8 2.3
v -1.7 4.8 2.3
v -1.7 5 2.3
v -1.4 5 2.3
v -1.7 5 2.1
v -1.4 5 2.1
v -1.9 3.4 1.6
v -1.4 3.4 1.6
v -1.9 3.4 1.2
v -1.4 3.4 1.2
v -2 4.1 2.5
v -1.9 4.1 2.5
v -1.7 4.1 2.5
v -2 4.1 2.4
v -1.9 4.1 2.4
v -2 4.1 2.3
v -1.7 4.1 2.3
v -1.9 4.3 -0.8
v -1.3 4.3 -0.8
v -1.9 4.3 -0.9
v -1.3 4.3 -0.9
v -2 4.4 2.5
v -1.9 4.4 2.5
v -1.7 4.4 2.5
v -2 4.4 2.4
v -1.9 4.4 2.4
v -2 4.4 2.3
v -1.7 4.4 2.3
v -1.9 4.4 -0.4
v -1.3 4.4 -0.4
v -1.9 4.4 -0.8
v -1.3 4.4 -0.8
v -2 4.5 -2.38419e-007
v -1.3 4.5 -2.38419e-007
v -2 4.5 -0.1
v -1.9 4.5 -0.1
v -1.9 4.5 -0.4
v -1.3 4.5 -0.4
v -2 4.6 0.4
v -1.3 4.6 0.4
v -2 4.6 -2.38419e-007
v -1.3 4.6 -2.38419e-007
v -2 4.7 2.5
v -1.9 4.7 2.5
v -1.7 4.7 2.5
v -2 4.7 2.4
v -1.9 4.7 2.4
v -2 4.7 2.3
v -1.7 4.7 2.3
v -2 4.7 0.8
v -1.3 4.7 0.8
v -2 4.7 0.4
v -1.3 4.7 0.4
v -2 4.8 1.1
v -1.3 4.8 1.1
v -2 4.8 0.8
v -1.3 4.8 0.8
v -1.7 4.9 2.2
v -1.4 4.9 2.2
v -1.7 4.9 2.1
v -1.4 4.9 2.1
v -2.1 4.9 1.6
v -1.9 4.9 1.6
v -1.4 4.9 1.6
v -1.3 4.9 1.6
v -2.1 4.9 1.2
v -1.3 4.9 1.2
v -2.1 4.9 1.1
v -1.3 4.9 1.1
v -2 5 2.5
v -1.9 5 2.5
v -1.7 5 2.5
v -2 5 2.4
v -1.9 5 2.4
v -1.7 5 2.3
v -1.7 5 2
v -1.4 5 2
v -2 5 1.8
v -1.9 5 1.8
v -1.4 5 1.8
v -1.9 5 1.6
v -1.4 5 1.6
v -1.7 5.1 2.1
v -1.4 5.1 2.1
v -1.7 5.1 2
v -1.4 5.1 2
v -1.7 5.4 2.3
v -1.4 5.4 2.3
v -1.7 5.4 2.2
v -1.4 5.4 2.2
v -1.7 5.4 2.1
v -1.4 5.4 2.1

# faces
f 4/2/1 2/2/1 1/2/1
f 5/2/1 2/2/1 4/2/1
f 6/2/1 4/2/1 1/2/1
f 6/4/1 5/4/1 4/4/1
f 7/2/1 2/2/1 5/2/1
f 7/4/1 5/4/1 6/4/1
f 8/2/1 6/2/1 1/2/1
f 8/2/1 7/2/1 6/2/1
f 9/2/1 2/2/1 7/2/1
f 9/2/1 7/2/1 8/2/1
f 10/2/1 8/2/1 1/2/1
f 10/4/1 9/4/1 8/4/1
f 11/2/1 2/2/1 9/2/1
f 11/4/1 9/4/1 10/4/1
f 12/2/1 10/2/1 1/2/1
f 12/2/1 11/2/1 10/2/1
f 13/4/1 3/4/1 2/4/1
f 13/2/1 11/2/1 12/2/1
f 13/2/1 2/2/1 11/2/1
f 14/4/1 3/4/1 13/4/1
f 20/6/1 18/6/1 17/6/1
f 21/3/1 19/3/1 18/3/1
f 21/6/1 18/6/1 20/6/1
f 22/3/1 19/3/1 21/3/1
f 25/3/1 19/3/1 22/3/1
f 26/6/1 24/6/1 23/6/1
f 27/3/1 25/3/1 24/3/1
f 27/6/1 24/6/1 26/6/1
f 28/3/1 19/3/1 25/3/1
f 28/3/1 25/3/1 27/3/1
f 31/3/1 19/3/1 28/3/1
f 32/1/1 16/1/1 15/1/1
f 33/1/1 16/1/1 32/1/1
f 34/1/1 32/1/1 15/1/1
f 35/1/1 32/1/1 34/1/1
f 36/6/1 30/6/1 29/6/1
f 37/3/1 31/3/1 30/3/1
f 37/6/1 30/6/1 36/6/1
f 38/3/1 19/3/1 31/3/1
f 38/3/1 31/3/1 37/3/1
f 39/1/1 34/1/1 15/1/1
f 40/1/1 34/1/1 39/1/1
f 43/3/1 19/3/1 38/3/1
f 44/1/1 39/1/1 15/1/1
f 45/1/1 39/1/1 44/1/1
f 46/6/1 42/6/1 41/6/1
f 47/3/1 43/3/1 42/3/1
f 47/6/1 42/6/1 46/6/1
f 48/3/1 19/3/1 43/3/1
f 48/3/1 43/3/1 47/3/1
f 51/1/1 50/1/1 49/1/1
f 55/7/1 54/7/1 53/7/1
f 56/1/1 51/1/1 49/1/1
f 56/1/1 52/1/1 51/1/1
f 57/1/1 52/1/1 56/1/1
f 58/1/1 56/1/1 49/1/1
f 59/1/1 56/1/1 58/1/1
f 60/1/1 58/1/1 49/1/1
f 61/1/1 58/1/1 60/1/1
f 62/7/1 54/7/1 55/7/1
f 63/7/1 62/7/1 55/7/1
f 64/7/1 62/7/1 63/7/1
f 67/3/1 66/3/1 65/3/1
f 68/3/1 66/3/1 67/3/1
f 69/3/1 67/3/1 65/3/1
f 70/3/1 67/3/1 69/3/1
f 71/3/1 69/3/1 65/3/1
f 72/6/1 70/6/1 69/6/1
f 72/3/1 69/3/1 71/3/1
f 73/6/1 70/6/1 72/6/1
f 76/2/1 75/2/1 74/2/1
f 77/2/1 75/2/1 76/2/1
f 78/2/2 79/2/2 80/2/2
f 80/2/2 79/2/2 81/2/2
f 82/3/2 83/3/2 84/3/2
f 84/3/2 83/3/2 85/3/2
f 85/3/2 83/3/2 87/3/2
f 86/3/2 87/3/2 88/3/2
f 87/3/2 83/3/2 89/3/2
f 88/3/2 87/3/2 89/3/2
f 89/3/2 83/3/2 91/3/2
f 90/3/2 91/3/2 92/3/2
f 91/3/2 83/3/2 93/3/2
f 92/3/2 91/3/2 93/3/2
f 93/3/2 83/3/2 95/3/2
f 95/3/2 83/3/2 96/3/2
f 94/3/2 95/3/2 96/3/2
f 94/3/2 96/3/2 98/3/2
f 96/3/2 97/3/2 98/3/2
f 98/3/2 97/3/2 99/3/2
f 99/3/2 97/3/2 100/3/2
f 101/7/2 102/7/2 104/7/2
f 103/3/2 104/3/2 105/3/2
f 105/3/2 104/3/2 106/3/2
f 104/7/2 102/7/2 107/7/2
f 106/3/2 104/3/2 109/3/2
f 109/3/2 104/3/2 110/3/2
f 104/7/2 107/7/2 111/7/2
f 110/3/2 104/3/2 111/3/2
f 111/7/2 107/7/2 112/7/2
f 109/3/2 110/3/2 113/3/2
f 108/3/2 109/3/2 113/3/2
f 113/3/2 110/3/2 114/3/2
f 108/3/2 113/3/2 115/3/2
f 115/3/2 113/3/2 116/3/2
f 108/3/2 115/3/2 117/3/2
f 115/6/2 116/6/2 118/6/2
f 117/3/2 115/3/2 118/3/2
f 118/6/2 116/6/2 119/6/2
f 121/4/2 122/4/2 123/4/2
f 123/1/2 124/1/2 125/1/2
f 123/1/2 125/1/2 127/1/2
f 125/1/2 126/1/2 127/1/2
f 127/1/2 126/1/2 128/1/2
f 123/1/2 127/1/2 129/1/2
f 129/1/2 127/1/2 130/1/2
f 123/1/2 129/1/2 131/1/2
f 131/1/2 129/1/2 132/1/2
f 123/1/2 131/1/2 133/1/2
f 133/1/2 131/1/2 134/1/2
f 123/1/2 133/1/2 135/1/2
f 135/1/2 133/1/2 136/1/2
f 121/4/2 123/4/2 137/4/2
f 123/1/2 135/1/2 137/1/2
f 137/1/2 135/1/2 138/1/2
f 120/2/2 121/2/2 139/2/2
f 121/4/2 137/4/2 140/4/2
f 139/2/2 121/2/2 140/2/2
f 140/4/2 137/4/2 141/4/2
f 150/6/3 143/6/3 142/6/3
f 151/6/3 143/6/3 150/6/3
f 152/6/3 145/6/3 144/6/3
f 153/6/3 145/6/3 152/6/3
f 154/6/3 147/6/3 146/6/3
f 155/6/3 147/6/3 154/6/3
f 156/6/3 149/6/3 148/6/3
f 157/6/3 149/6/3 156/6/3
f 158/3/3 151/3/3 150/3/3
f 159/3/3 151/3/3 158/3/3
f 160/3/3 153/3/3 152/3/3
f 161/3/3 153/3/3 160/3/3
f 162/3/3 155/3/3 154/3/3
f 163/3/3 155/3/3 162/3/3
f 164/3/3 157/3/3 156/3/3
f 165/3/3 157/3/3 164/3/3
f 172/3/3 167/3/3 166/3/3
f 173/3/3 167/3/3 172/3/3
f 174/3/3 169/3/3 168/3/3
f 175/3/3 169/3/3 174/3/3
f 176/3/3 171/3/3 170/3/3
f 177/3/3 171/3/3 176/3/3
f 180/3/3 179/3/3 178/3/3
f 181/3/3 179/3/3 180/3/3
f 184/3/3 183/3/3 182/3/3
f 185/3/3 183/3/3 184/3/3
f 188/3/3 187/3/3 186/3/3
f 189/3/3 187/3/3 188/3/3
f 192/7/3 191/7/3 190/7/3
f 193/7/3 191/7/3 192/7/3
f 196/2/3 195/2/3 194/2/3
f 197/2/3 195/2/3 196/2/3
f 198/2/3 195/2/3 197/2/3
f 199/2/3 196/2/3 194/2/3
f 202/2/3 199/2/3 194/2/3
f 202/2/3 201/2/3 200/2/3
f 202/2/3 200/2/3 199/2/3
f 203/2/3 201/2/3 202/2/3
f 206/5/3 205/5/3 204/5/3
f 207/5/3 205/5/3 206/5/3
f 208/3/4 209/3/4 211/3/4
f 209/6/4 210/6/4 212/6/4
f 211/3/4 209/3/4 212/3/4
f 212/6/4 210/6/4 213/6/4
f 214/3/4 215/3/4 216/3/4
f 216/3/4 215/3/4 217/3/4
f 218/3/4 219/3/4 220/3/4
f 220/3/4 219/3/4 221/3/4
f 222/7/4 223/7/4 224/7/4
f 224/7/4 223/7/4 225/7/4
f 226/4/4 227/4/4 228/4/4
f 228/4/4 227/4/4 229/4/4
f 226/4/4 228/4/4 230/4/4
f 230/4/4 228/4/4 231/4/4
f 229/4/4 227/4/4 232/4/4
f 232/4/4 227/4/4 233/4/4
f 234/1/4 235/1/4 236/1/4
f 236/1/4 235/1/4 237/1/4
f 238/1/4 239/1/4 240/1/4
f 240/1/4 239/1/4 241/1/4
f 242/1/4 243/1/4 244/1/4
f 244/1/4 243/1/4 245/1/4
f 246/1/4 247/1/4 248/1/4
f 248/1/4 247/1/4 249/1/4
f 250/1/4 251/1/4 252/1/4
f 252/1/4 251/1/4 253/1/4
f 254/1/4 255/1/4 258/1/4
f 258/1/4 255/1/4 259/1/4
f 256/1/4 257/1/4 260/1/4
f 260/1/4 257/1/4 261/1/4
f 262/1/4 263/1/4 264/1/4
f 264/1/4 263/1/4 265/1/4
f 268/2/5 267/2/5 266/2/5
f 269/2/5 267/2/5 268/2/5
f 270/4/5 269/4/5 268/4/5
f 271/4/5 269/4/5 270/4/5
f 274/1/5 273/1/5 272/1/5
f 275/1/5 273/1/5 274/1/5
f 276/1/5 273/1/5 275/1/5
f 277/1/5 273/1/5 276/1/5
f 280/1/5 279/1/5 278/1/5
f 281/1/5 279/1/5 280/1/5
f 284/7/5 283/7/5 282/7/5
f 285/7/5 283/7/5 284/7/5
f 286/2/5 285/2/5 284/2/5
f 287/2/5 285/2/5 286/2/5
f 291/6/5 289/6/5 288/6/5
f 292/3/5 290/3/5 289/3/5
f 292/6/5 289/6/5 291/6/5
f 293/3/5 292/3/5 291/3/5
f 293/3/5 290/3/5 292/3/5
f 295/3/5 293/3/5 291/3/5
f 295/3/5 294/3/5 293/3/5
f 296/3/5 294/3/5 295/3/5
f 297/3/5 294/3/5 296/3/5
f 301/6/5 299/6/5 298/6/5
f 302/3/5 300/3/5 299/3/5
f 302/6/5 299/6/5 301/6/5
f 303/3/5 302/3/5 301/3/5
f 304/3/5 300/3/5 302/3/5
f 304/3/5 302/3/5 303/3/5
f 308/6/5 306/6/5 305/6/5
f 309/3/5 307/3/5 306/3/5
f 309/6/5 306/6/5 308/6/5
f 310/3/5 309/3/5 308/3/5
f 311/3/5 307/3/5 309/3/5
f 311/3/5 309/3/5 310/3/5
f 315/6/5 313/6/5 312/6/5
f 316/3/5 314/3/5 313/3/5
f 316/6/5 313/6/5 315/6/5
f 317/3/5 316/3/5 315/3/5
f 318/3/5 314/3/5 316/3/5
f 318/3/5 316/3/5 317/3/5
f 321/3/5 320/3/5 319/3/5
f 322/3/5 320/3/5 321/3/5
f 323/2/6 324/2/6 325/2/6
f 325/2/6 324/2/6 326/2/6
f 327/6/6 328/6/6 330/6/6
f 328/3/6 329/3/6 331/3/6
f 330/6/6 328/6/6 331/6/6
f 330/3/6 331/3/6 332/3/6
f 331/3/6 329/3/6 333/3/6
f 332/3/6 331/3/6 333/3/6
f 334/1/6 335/1/6 336/1/6
f 336/1/6 335/1/6 337/1/6
f 338/6/6 339/6/6 341/6/6
f 339/3/6 340/3/6 342/3/6
f 341/6/6 339/6/6 342/6/6
f 341/3/6 342/3/6 343/3/6
f 342/3/6 340/3/6 344/3/6
f 343/3/6 342/3/6 344/3/6
f 345/1/6 346/1/6 347/1/6
f 347/1/6 346/1/6 348/1/6
f 349/1/6 350/1/6 351/1/6
f 351/1/6 350/1/6 352/1/6
f 352/1/6 350/1/6 353/1/6
f 353/1/6 350/1/6 354/1/6
f 355/1/6 356/1/6 357/1/6
f 357/1/6 356/1/6 358/1/6
f 359/6/6 360/6/6 362/6/6
f 360/3/6 361/3/6 363/3/6
f 362/6/6 360/6/6 363/6/6
f 362/3/6 363/3/6 364/3/6
f 363/3/6 361/3/6 365/3/6
f 364/3/6 363/3/6 365/3/6
f 366/1/6 367/1/6 368/1/6
f 368/1/6 367/1/6 369/1/6
f 370/1/6 371/1/6 372/1/6
f 372/1/6 371/1/6 373/1/6
f 374/3/6 375/3/6 376/3/6
f 376/3/6 375/3/6 377/3/6
f 379/2/6 380/2/6 382/2/6
f 380/2/6 381/2/6 382/2/6
f 378/2/6 379/2/6 382/2/6
f 382/2/6 381/2/6 383/2/6
f 382/4/6 383/4/6 384/4/6
f 384/4/6 383/4/6 385/4/6
f 386/6/6 387/6/6 389/6/6
f 387/3/6 388/3/6 390/3/6
f 389/6/6 387/6/6 390/6/6
f 389/3/6 390/3/6 391/3/6
f 390/3/6 388/3/6 391/3/6
f 389/3/6 391/3/6 392/3/6
f 389/3/6 392/3/6 394/3/6
f 392/3/6 393/3/6 394/3/6
f 394/3/6 393/3/6 395/3/6
f 395/3/6 393/3/6 396/3/6
f 395/7/6 396/7/6 397/7/6
f 397/7/6 396/7/6 398/7/6
f 399/3/6 400/3/6 401/3/6
f 401/3/6 400/3/6 402/3/6
f 403/3/6 404/3/6 405/3/6
f 405/3/6 404/3/6 406/3/6
f 405/6/6 406/6/6 407/6/6
f 407/6/6 406/6/6 408/6/6
